<?xml version="1.0" encoding="UTF-8"?>
<svg width="31px" height="31px" viewBox="0 0 31 31" version="1.1" xmlns="http://www.w3.org/2000/svg" xmlns:xlink="http://www.w3.org/1999/xlink">
    <!-- Generator: Sketch 50 (54983) - http://www.bohemiancoding.com/sketch -->
    <title>bug-gray-1</title>
    <desc>Created with Sketch.</desc>
    <defs></defs>
    <g id="Page-1" stroke="none" stroke-width="1" fill="none" fill-rule="evenodd">
        <g id="reactathon-2.5-compressed-images" transform="translate(-1006.000000, -330.000000)" fill="#D8D8D8">
            <path d="M1018,349 L1018,353 L1014,353 L1014,349 L1010,349 L1006,349 L1006,345 L1006,341 L1010,341 L1010,337 L1014,337 L1014,334 L1018,334 L1018,330 L1021,330 L1025,330 L1025,334 L1029,334 L1029,337 L1033,337 L1033,341 L1037,341 L1037,345 L1037,349 L1033,349 L1029,349 L1029,353 L1025,353 L1025,349 L1021,349 L1018,349 Z M1029,353 L1033,353 L1033,357 L1029,357 L1029,353 Z M1033,357 L1037,357 L1037,361 L1033,361 L1033,357 Z M1014,353 L1014,357 L1010,357 L1010,353 L1014,353 Z M1010,357 L1010,361 L1006,361 L1006,357 L1010,357 Z M1025,338.5 L1025,342.5 L1029,342.5 L1029,338.5 L1025,338.5 Z M1014.5,338.5 L1014.5,342.5 L1018.5,342.5 L1018.5,338.5 L1014.5,338.5 Z M1018.5,346 L1018.5,347.5 L1025,347.5 L1025,346 L1018.5,346 Z" id="bug-gray-1"></path>
        </g>
    </g>
</svg>