<?xml version="1.0" encoding="UTF-8"?>
<svg width="494px" height="52px" viewBox="0 0 494 52" version="1.1" xmlns="http://www.w3.org/2000/svg" xmlns:xlink="http://www.w3.org/1999/xlink">
    <!-- Generator: Sketch 50 (54983) - http://www.bohemiancoding.com/sketch -->
    <title>logo red orange yellow</title>
    <desc>Created with Sketch.</desc>
    <defs></defs>
    <g id="Page-1" stroke="none" stroke-width="1" fill="none" fill-rule="evenodd">
        <g id="reactathon-2.5-compressed-images" transform="translate(-371.000000, -189.000000)">
            <g id="Group" transform="translate(-2.000000, 0.000000)">
                <g id="logo-red-orange-yellow" transform="translate(373.000000, 189.000000)">
                    <path d="M0.754244579,11.0770929 C0.251412346,11.0770929 0,10.2920655 0,8.72198712 C0,7.15190874 0.251412346,6.36688132 0.754244579,6.36688132 L11.7379313,6.36688132 C12.2721905,6.36688132 12.5393161,7.15190874 12.5393161,8.72198712 C12.5393161,10.2920655 12.2721905,11.0770929 11.7379313,11.0770929 L0.754244579,11.0770929 Z M32.1025349,11.0770929 C31.5997027,11.0770929 31.3482903,10.2920655 31.3482903,8.72198712 C31.3482903,7.15190874 31.5997027,6.36688132 32.1025349,6.36688132 L43.0862216,6.36688132 C43.6204808,6.36688132 43.8876064,7.15190874 43.8876064,8.72198712 C43.8876064,10.2920655 43.6204808,11.0770929 43.0862216,11.0770929 L32.1025349,11.0770929 Z M0.754244579,4.8125115 C0.251412346,4.8125115 0,4.02748408 0,2.4574057 C0,0.887327323 0.251412346,0.102299908 0.754244579,0.102299908 L36.8165635,0.102299908 C37.3508228,0.102299908 37.6179484,0.887327323 37.6179484,2.4574057 C37.6179484,4.02748408 37.3508228,4.8125115 36.8165635,4.8125115 L0.754244579,4.8125115 Z M0.754244579,17.3416743 C0.251412346,17.3416743 0,16.5566469 0,14.9865685 C0,13.4164902 0.251412346,12.6314627 0.754244579,12.6314627 L11.7379313,12.6314627 C12.2721905,12.6314627 12.5393161,13.4164902 12.5393161,14.9865685 C12.5393161,16.5566469 12.2721905,17.3416743 11.7379313,17.3416743 L0.754244579,17.3416743 Z M32.1025349,17.3416743 C31.5997027,17.3416743 31.3482903,16.5566469 31.3482903,14.9865685 C31.3482903,13.4164902 31.5997027,12.6314627 32.1025349,12.6314627 L43.0862216,12.6314627 C43.6204808,12.6314627 43.8876064,13.4164902 43.8876064,14.9865685 C43.8876064,16.5566469 43.6204808,17.3416743 43.0862216,17.3416743 L32.1025349,17.3416743 Z M0.754244579,29.8708372 C0.251412346,29.8708372 0,29.0858098 0,27.5157314 C0,25.945653 0.251412346,25.1606256 0.754244579,25.1606256 L30.5469054,25.1606256 C31.0811647,25.1606256 31.3482903,25.945653 31.3482903,27.5157314 C31.3482903,29.0858098 31.0811647,29.8708372 30.5469054,29.8708372 L0.754244579,29.8708372 Z M0.754244579,23.6062557 C0.251412346,23.6062557 0,22.8212283 0,21.25115 C0,19.6810716 0.251412346,18.8960442 0.754244579,18.8960442 L11.7379313,18.8960442 C12.2721905,18.8960442 12.5393161,19.6810716 12.5393161,21.25115 C12.5393161,22.8212283 12.2721905,23.6062557 11.7379313,23.6062557 L0.754244579,23.6062557 Z M0.754244579,36.1354186 C0.251412346,36.1354186 0,35.3503912 0,33.7803128 C0,32.2102344 0.251412346,31.425207 0.754244579,31.425207 L11.7379313,31.425207 C12.2721905,31.425207 12.5393161,32.2102344 12.5393161,33.7803128 C12.5393161,35.3503912 12.2721905,36.1354186 11.7379313,36.1354186 L0.754244579,36.1354186 Z M19.5632188,36.1354186 C19.0603865,36.1354186 18.8089742,35.3503912 18.8089742,33.7803128 C18.8089742,32.2102344 19.0603865,31.425207 19.5632188,31.425207 L36.8165635,31.425207 C37.3508228,31.425207 37.6179484,32.2102344 37.6179484,33.7803128 C37.6179484,35.3503912 37.3508228,36.1354186 36.8165635,36.1354186 L19.5632188,36.1354186 Z M0.754244579,42.4 C0.251412346,42.4 0,41.6149726 0,40.0448942 C0,38.4748158 0.251412346,37.6897884 0.754244579,37.6897884 L11.7379313,37.6897884 C12.2721905,37.6897884 12.5393161,38.4748158 12.5393161,40.0448942 C12.5393161,41.6149726 12.2721905,42.4 11.7379313,42.4 L0.754244579,42.4 Z M25.8328768,23.6062557 C25.3300446,23.6062557 25.0786323,22.8212283 25.0786323,21.25115 C25.0786323,19.6810716 25.3300446,18.8960442 25.8328768,18.8960442 L43.0862216,18.8960442 C43.6204808,18.8960442 43.8876064,19.6810716 43.8876064,21.25115 C43.8876064,22.8212283 43.6204808,23.6062557 43.0862216,23.6062557 L25.8328768,23.6062557 Z M25.8328768,42.4 C25.3300446,42.4 25.0786323,41.6149726 25.0786323,40.0448942 C25.0786323,38.4748158 25.3300446,37.6897884 25.8328768,37.6897884 L43.0862216,37.6897884 C43.6204808,37.6897884 43.8876064,38.4748158 43.8876064,40.0448942 C43.8876064,41.6149726 43.6204808,42.4 43.0862216,42.4 L25.8328768,42.4 Z M50.9115091,11.0770929 C50.4086768,11.0770929 50.1572645,10.2920655 50.1572645,8.72198712 C50.1572645,7.15190874 50.4086768,6.36688132 50.9115091,6.36688132 L61.8951958,6.36688132 C62.429455,6.36688132 62.6965806,7.15190874 62.6965806,8.72198712 C62.6965806,10.2920655 62.429455,11.0770929 61.8951958,11.0770929 L50.9115091,11.0770929 Z M50.9115091,4.8125115 C50.4086768,4.8125115 50.1572645,4.02748408 50.1572645,2.4574057 C50.1572645,0.887327323 50.4086768,0.102299908 50.9115091,0.102299908 L93.2434861,0.102299908 C93.7777453,0.102299908 94.0448709,0.887327323 94.0448709,2.4574057 C94.0448709,4.02748408 93.7777453,4.8125115 93.2434861,4.8125115 L50.9115091,4.8125115 Z M50.9115091,17.3416743 C50.4086768,17.3416743 50.1572645,16.5566469 50.1572645,14.9865685 C50.1572645,13.4164902 50.4086768,12.6314627 50.9115091,12.6314627 L61.8951958,12.6314627 C62.429455,12.6314627 62.6965806,13.4164902 62.6965806,14.9865685 C62.6965806,16.5566469 62.429455,17.3416743 61.8951958,17.3416743 L50.9115091,17.3416743 Z M50.9115091,29.8708372 C50.4086768,29.8708372 50.1572645,29.0858098 50.1572645,27.5157314 C50.1572645,25.945653 50.4086768,25.1606256 50.9115091,25.1606256 L61.8951958,25.1606256 C62.429455,25.1606256 62.6965806,25.945653 62.6965806,27.5157314 C62.6965806,29.0858098 62.429455,29.8708372 61.8951958,29.8708372 L50.9115091,29.8708372 Z M50.9115091,23.6062557 C50.4086768,23.6062557 50.1572645,22.8212283 50.1572645,21.25115 C50.1572645,19.6810716 50.4086768,18.8960442 50.9115091,18.8960442 L86.973828,18.8960442 C87.5080873,18.8960442 87.7752129,19.6810716 87.7752129,21.25115 C87.7752129,22.8212283 87.5080873,23.6062557 86.973828,23.6062557 L50.9115091,23.6062557 Z M50.9115091,36.1354186 C50.4086768,36.1354186 50.1572645,35.3503912 50.1572645,33.7803128 C50.1572645,32.2102344 50.4086768,31.425207 50.9115091,31.425207 L61.8951958,31.425207 C62.429455,31.425207 62.6965806,32.2102344 62.6965806,33.7803128 C62.6965806,35.3503912 62.429455,36.1354186 61.8951958,36.1354186 L50.9115091,36.1354186 Z M50.9115091,42.4 C50.4086768,42.4 50.1572645,41.6149726 50.1572645,40.0448942 C50.1572645,38.4748158 50.4086768,37.6897884 50.9115091,37.6897884 L93.2434861,37.6897884 C93.7777453,37.6897884 94.0448709,38.4748158 94.0448709,40.0448942 C94.0448709,41.6149726 93.7777453,42.4 93.2434861,42.4 L50.9115091,42.4 Z M107.338432,11.0770929 C106.835599,11.0770929 106.584187,10.2920655 106.584187,8.72198712 C106.584187,7.15190874 106.835599,6.36688132 107.338432,6.36688132 L118.322118,6.36688132 C118.856378,6.36688132 119.123503,7.15190874 119.123503,8.72198712 C119.123503,10.2920655 118.856378,11.0770929 118.322118,11.0770929 L107.338432,11.0770929 Z M126.147406,11.0770929 C125.644574,11.0770929 125.393161,10.2920655 125.393161,8.72198712 C125.393161,7.15190874 125.644574,6.36688132 126.147406,6.36688132 L137.131093,6.36688132 C137.665352,6.36688132 137.932477,7.15190874 137.932477,8.72198712 C137.932477,10.2920655 137.665352,11.0770929 137.131093,11.0770929 L126.147406,11.0770929 Z M113.60809,4.8125115 C113.105257,4.8125115 112.853845,4.02748408 112.853845,2.4574057 C112.853845,0.887327323 113.105257,0.102299908 113.60809,0.102299908 L130.861434,0.102299908 C131.395694,0.102299908 131.662819,0.887327323 131.662819,2.4574057 C131.662819,4.02748408 131.395694,4.8125115 130.861434,4.8125115 L113.60809,4.8125115 Z M101.068774,17.3416743 C100.565941,17.3416743 100.314529,16.5566469 100.314529,14.9865685 C100.314529,13.4164902 100.565941,12.6314627 101.068774,12.6314627 L112.05246,12.6314627 C112.58672,12.6314627 112.853845,13.4164902 112.853845,14.9865685 C112.853845,16.5566469 112.58672,17.3416743 112.05246,17.3416743 L101.068774,17.3416743 Z M132.417064,17.3416743 C131.914232,17.3416743 131.662819,16.5566469 131.662819,14.9865685 C131.662819,13.4164902 131.914232,12.6314627 132.417064,12.6314627 L143.400751,12.6314627 C143.93501,12.6314627 144.202135,13.4164902 144.202135,14.9865685 C144.202135,16.5566469 143.93501,17.3416743 143.400751,17.3416743 L132.417064,17.3416743 Z M101.068774,23.6062557 C100.565941,23.6062557 100.314529,22.8212283 100.314529,21.25115 C100.314529,19.6810716 100.565941,18.8960442 101.068774,18.8960442 L112.05246,18.8960442 C112.58672,18.8960442 112.853845,19.6810716 112.853845,21.25115 C112.853845,22.8212283 112.58672,23.6062557 112.05246,23.6062557 L101.068774,23.6062557 Z M132.417064,23.6062557 C131.914232,23.6062557 131.662819,22.8212283 131.662819,21.25115 C131.662819,19.6810716 131.914232,18.8960442 132.417064,18.8960442 L143.400751,18.8960442 C143.93501,18.8960442 144.202135,19.6810716 144.202135,21.25115 C144.202135,22.8212283 143.93501,23.6062557 143.400751,23.6062557 L132.417064,23.6062557 Z M101.068774,29.8708372 C100.565941,29.8708372 100.314529,29.0858098 100.314529,27.5157314 C100.314529,25.945653 100.565941,25.1606256 101.068774,25.1606256 L143.400751,25.1606256 C143.93501,25.1606256 144.202135,25.945653 144.202135,27.5157314 C144.202135,29.0858098 143.93501,29.8708372 143.400751,29.8708372 L101.068774,29.8708372 Z M101.068774,36.1354186 C100.565941,36.1354186 100.314529,35.3503912 100.314529,33.7803128 C100.314529,32.2102344 100.565941,31.425207 101.068774,31.425207 L112.05246,31.425207 C112.58672,31.425207 112.853845,32.2102344 112.853845,33.7803128 C112.853845,35.3503912 112.58672,36.1354186 112.05246,36.1354186 L101.068774,36.1354186 Z M132.417064,36.1354186 C131.914232,36.1354186 131.662819,35.3503912 131.662819,33.7803128 C131.662819,32.2102344 131.914232,31.425207 132.417064,31.425207 L143.400751,31.425207 C143.93501,31.425207 144.202135,32.2102344 144.202135,33.7803128 C144.202135,35.3503912 143.93501,36.1354186 143.400751,36.1354186 L132.417064,36.1354186 Z M101.068774,42.4 C100.565941,42.4 100.314529,41.6149726 100.314529,40.0448942 C100.314529,38.4748158 100.565941,37.6897884 101.068774,37.6897884 L112.05246,37.6897884 C112.58672,37.6897884 112.853845,38.4748158 112.853845,40.0448942 C112.853845,41.6149726 112.58672,42.4 112.05246,42.4 L101.068774,42.4 Z M132.417064,42.4 C131.914232,42.4 131.662819,41.6149726 131.662819,40.0448942 C131.662819,38.4748158 131.914232,37.6897884 132.417064,37.6897884 L143.400751,37.6897884 C143.93501,37.6897884 144.202135,38.4748158 144.202135,40.0448942 C144.202135,41.6149726 143.93501,42.4 143.400751,42.4 L132.417064,42.4 Z M157.495696,11.0770929 C156.992864,11.0770929 156.741452,10.2920655 156.741452,8.72198712 C156.741452,7.15190874 156.992864,6.36688132 157.495696,6.36688132 L168.479383,6.36688132 C169.013642,6.36688132 169.280768,7.15190874 169.280768,8.72198712 C169.280768,10.2920655 169.013642,11.0770929 168.479383,11.0770929 L157.495696,11.0770929 Z M182.574328,11.0770929 C182.071496,11.0770929 181.820084,10.2920655 181.820084,8.72198712 C181.820084,7.15190874 182.071496,6.36688132 182.574328,6.36688132 L193.558015,6.36688132 C194.092274,6.36688132 194.3594,7.15190874 194.3594,8.72198712 C194.3594,10.2920655 194.092274,11.0770929 193.558015,11.0770929 L182.574328,11.0770929 Z M163.765354,4.8125115 C163.262522,4.8125115 163.01111,4.02748408 163.01111,2.4574057 C163.01111,0.887327323 163.262522,0.102299908 163.765354,0.102299908 L187.288357,0.102299908 C187.822616,0.102299908 188.089742,0.887327323 188.089742,2.4574057 C188.089742,4.02748408 187.822616,4.8125115 187.288357,4.8125115 L163.765354,4.8125115 Z M151.226038,17.3416743 C150.723206,17.3416743 150.471794,16.5566469 150.471794,14.9865685 C150.471794,13.4164902 150.723206,12.6314627 151.226038,12.6314627 L162.209725,12.6314627 C162.743984,12.6314627 163.01111,13.4164902 163.01111,14.9865685 C163.01111,16.5566469 162.743984,17.3416743 162.209725,17.3416743 L151.226038,17.3416743 Z M151.226038,29.8708372 C150.723206,29.8708372 150.471794,29.0858098 150.471794,27.5157314 C150.471794,25.945653 150.723206,25.1606256 151.226038,25.1606256 L162.209725,25.1606256 C162.743984,25.1606256 163.01111,25.945653 163.01111,27.5157314 C163.01111,29.0858098 162.743984,29.8708372 162.209725,29.8708372 L151.226038,29.8708372 Z M151.226038,23.6062557 C150.723206,23.6062557 150.471794,22.8212283 150.471794,21.25115 C150.471794,19.6810716 150.723206,18.8960442 151.226038,18.8960442 L162.209725,18.8960442 C162.743984,18.8960442 163.01111,19.6810716 163.01111,21.25115 C163.01111,22.8212283 162.743984,23.6062557 162.209725,23.6062557 L151.226038,23.6062557 Z M157.495696,36.1354186 C156.992864,36.1354186 156.741452,35.3503912 156.741452,33.7803128 C156.741452,32.2102344 156.992864,31.425207 157.495696,31.425207 L168.479383,31.425207 C169.013642,31.425207 169.280768,32.2102344 169.280768,33.7803128 C169.280768,35.3503912 169.013642,36.1354186 168.479383,36.1354186 L157.495696,36.1354186 Z M182.574328,36.1354186 C182.071496,36.1354186 181.820084,35.3503912 181.820084,33.7803128 C181.820084,32.2102344 182.071496,31.425207 182.574328,31.425207 L193.558015,31.425207 C194.092274,31.425207 194.3594,32.2102344 194.3594,33.7803128 C194.3594,35.3503912 194.092274,36.1354186 193.558015,36.1354186 L182.574328,36.1354186 Z M163.765354,42.4 C163.262522,42.4 163.01111,41.6149726 163.01111,40.0448942 C163.01111,38.4748158 163.262522,37.6897884 163.765354,37.6897884 L187.288357,37.6897884 C187.822616,37.6897884 188.089742,38.4748158 188.089742,40.0448942 C188.089742,41.6149726 187.822616,42.4 187.288357,42.4 L163.765354,42.4 Z M215.388387,11.0770929 C214.885555,11.0770929 214.634142,10.2920655 214.634142,8.72198712 C214.634142,7.15190874 214.885555,6.36688132 215.388387,6.36688132 L226.372074,6.36688132 C226.906333,6.36688132 227.173459,7.15190874 227.173459,8.72198712 C227.173459,10.2920655 226.906333,11.0770929 226.372074,11.0770929 L215.388387,11.0770929 Z M202.849071,4.8125115 C202.346239,4.8125115 202.094826,4.02748408 202.094826,2.4574057 C202.094826,0.887327323 202.346239,0.102299908 202.849071,0.102299908 L238.91139,0.102299908 C239.445649,0.102299908 239.712775,0.887327323 239.712775,2.4574057 C239.712775,4.02748408 239.445649,4.8125115 238.91139,4.8125115 L202.849071,4.8125115 Z M215.388387,17.3416743 C214.885555,17.3416743 214.634142,16.5566469 214.634142,14.9865685 C214.634142,13.4164902 214.885555,12.6314627 215.388387,12.6314627 L226.372074,12.6314627 C226.906333,12.6314627 227.173459,13.4164902 227.173459,14.9865685 C227.173459,16.5566469 226.906333,17.3416743 226.372074,17.3416743 L215.388387,17.3416743 Z M215.388387,36.1354186 C214.885555,36.1354186 214.634142,35.3503912 214.634142,33.7803128 C214.634142,32.2102344 214.885555,31.425207 215.388387,31.425207 L226.372074,31.425207 C226.906333,31.425207 227.173459,32.2102344 227.173459,33.7803128 C227.173459,35.3503912 226.906333,36.1354186 226.372074,36.1354186 L215.388387,36.1354186 Z M215.388387,42.4 C214.885555,42.4 214.634142,41.6149726 214.634142,40.0448942 C214.634142,38.4748158 214.885555,37.6897884 215.388387,37.6897884 L226.372074,37.6897884 C226.906333,37.6897884 227.173459,38.4748158 227.173459,40.0448942 C227.173459,41.6149726 226.906333,42.4 226.372074,42.4 L215.388387,42.4 Z M215.388387,23.6062557 C214.885555,23.6062557 214.634142,22.8212283 214.634142,21.25115 C214.634142,19.6810716 214.885555,18.8960442 215.388387,18.8960442 L226.372074,18.8960442 C226.906333,18.8960442 227.173459,19.6810716 227.173459,21.25115 C227.173459,22.8212283 226.906333,23.6062557 226.372074,23.6062557 L215.388387,23.6062557 Z M215.388387,29.8708372 C214.885555,29.8708372 214.634142,29.0858098 214.634142,27.5157314 C214.634142,25.945653 214.885555,25.1606256 215.388387,25.1606256 L226.372074,25.1606256 C226.906333,25.1606256 227.173459,25.945653 227.173459,27.5157314 C227.173459,29.0858098 226.906333,29.8708372 226.372074,29.8708372 L215.388387,29.8708372 Z M253.006335,11.0770929 C252.503503,11.0770929 252.252091,10.2920655 252.252091,8.72198712 C252.252091,7.15190874 252.503503,6.36688132 253.006335,6.36688132 L263.990022,6.36688132 C264.524281,6.36688132 264.791407,7.15190874 264.791407,8.72198712 C264.791407,10.2920655 264.524281,11.0770929 263.990022,11.0770929 L253.006335,11.0770929 Z M271.81531,11.0770929 C271.312477,11.0770929 271.061065,10.2920655 271.061065,8.72198712 C271.061065,7.15190874 271.312477,6.36688132 271.81531,6.36688132 L282.798996,6.36688132 C283.333255,6.36688132 283.600381,7.15190874 283.600381,8.72198712 C283.600381,10.2920655 283.333255,11.0770929 282.798996,11.0770929 L271.81531,11.0770929 Z M259.275993,4.8125115 C258.773161,4.8125115 258.521749,4.02748408 258.521749,2.4574057 C258.521749,0.887327323 258.773161,0.102299908 259.275993,0.102299908 L276.529338,0.102299908 C277.063597,0.102299908 277.330723,0.887327323 277.330723,2.4574057 C277.330723,4.02748408 277.063597,4.8125115 276.529338,4.8125115 L259.275993,4.8125115 Z M246.736677,17.3416743 C246.233845,17.3416743 245.982433,16.5566469 245.982433,14.9865685 C245.982433,13.4164902 246.233845,12.6314627 246.736677,12.6314627 L257.720364,12.6314627 C258.254623,12.6314627 258.521749,13.4164902 258.521749,14.9865685 C258.521749,16.5566469 258.254623,17.3416743 257.720364,17.3416743 L246.736677,17.3416743 Z M278.084968,17.3416743 C277.582135,17.3416743 277.330723,16.5566469 277.330723,14.9865685 C277.330723,13.4164902 277.582135,12.6314627 278.084968,12.6314627 L289.068654,12.6314627 C289.602914,12.6314627 289.870039,13.4164902 289.870039,14.9865685 C289.870039,16.5566469 289.602914,17.3416743 289.068654,17.3416743 L278.084968,17.3416743 Z M246.736677,23.6062557 C246.233845,23.6062557 245.982433,22.8212283 245.982433,21.25115 C245.982433,19.6810716 246.233845,18.8960442 246.736677,18.8960442 L257.720364,18.8960442 C258.254623,18.8960442 258.521749,19.6810716 258.521749,21.25115 C258.521749,22.8212283 258.254623,23.6062557 257.720364,23.6062557 L246.736677,23.6062557 Z M278.084968,23.6062557 C277.582135,23.6062557 277.330723,22.8212283 277.330723,21.25115 C277.330723,19.6810716 277.582135,18.8960442 278.084968,18.8960442 L289.068654,18.8960442 C289.602914,18.8960442 289.870039,19.6810716 289.870039,21.25115 C289.870039,22.8212283 289.602914,23.6062557 289.068654,23.6062557 L278.084968,23.6062557 Z M246.736677,29.8708372 C246.233845,29.8708372 245.982433,29.0858098 245.982433,27.5157314 C245.982433,25.945653 246.233845,25.1606256 246.736677,25.1606256 L289.068654,25.1606256 C289.602914,25.1606256 289.870039,25.945653 289.870039,27.5157314 C289.870039,29.0858098 289.602914,29.8708372 289.068654,29.8708372 L246.736677,29.8708372 Z M246.736677,36.1354186 C246.233845,36.1354186 245.982433,35.3503912 245.982433,33.7803128 C245.982433,32.2102344 246.233845,31.425207 246.736677,31.425207 L257.720364,31.425207 C258.254623,31.425207 258.521749,32.2102344 258.521749,33.7803128 C258.521749,35.3503912 258.254623,36.1354186 257.720364,36.1354186 L246.736677,36.1354186 Z M278.084968,36.1354186 C277.582135,36.1354186 277.330723,35.3503912 277.330723,33.7803128 C277.330723,32.2102344 277.582135,31.425207 278.084968,31.425207 L289.068654,31.425207 C289.602914,31.425207 289.870039,32.2102344 289.870039,33.7803128 C289.870039,35.3503912 289.602914,36.1354186 289.068654,36.1354186 L278.084968,36.1354186 Z M246.736677,42.4 C246.233845,42.4 245.982433,41.6149726 245.982433,40.0448942 C245.982433,38.4748158 246.233845,37.6897884 246.736677,37.6897884 L257.720364,37.6897884 C258.254623,37.6897884 258.521749,38.4748158 258.521749,40.0448942 C258.521749,41.6149726 258.254623,42.4 257.720364,42.4 L246.736677,42.4 Z M278.084968,42.4 C277.582135,42.4 277.330723,41.6149726 277.330723,40.0448942 C277.330723,38.4748158 277.582135,37.6897884 278.084968,37.6897884 L289.068654,37.6897884 C289.602914,37.6897884 289.870039,38.4748158 289.870039,40.0448942 C289.870039,41.6149726 289.602914,42.4 289.068654,42.4 L278.084968,42.4 Z M308.817341,11.0770929 C308.314508,11.0770929 308.063096,10.2920655 308.063096,8.72198712 C308.063096,7.15190874 308.314508,6.36688132 308.817341,6.36688132 L319.801027,6.36688132 C320.335287,6.36688132 320.602412,7.15190874 320.602412,8.72198712 C320.602412,10.2920655 320.335287,11.0770929 319.801027,11.0770929 L308.817341,11.0770929 Z M296.278025,4.8125115 C295.775192,4.8125115 295.52378,4.02748408 295.52378,2.4574057 C295.52378,0.887327323 295.775192,0.102299908 296.278025,0.102299908 L332.340343,0.102299908 C332.874603,0.102299908 333.141728,0.887327323 333.141728,2.4574057 C333.141728,4.02748408 332.874603,4.8125115 332.340343,4.8125115 L296.278025,4.8125115 Z M308.817341,17.3416743 C308.314508,17.3416743 308.063096,16.5566469 308.063096,14.9865685 C308.063096,13.4164902 308.314508,12.6314627 308.817341,12.6314627 L319.801027,12.6314627 C320.335287,12.6314627 320.602412,13.4164902 320.602412,14.9865685 C320.602412,16.5566469 320.335287,17.3416743 319.801027,17.3416743 L308.817341,17.3416743 Z M308.817341,36.1354186 C308.314508,36.1354186 308.063096,35.3503912 308.063096,33.7803128 C308.063096,32.2102344 308.314508,31.425207 308.817341,31.425207 L319.801027,31.425207 C320.335287,31.425207 320.602412,32.2102344 320.602412,33.7803128 C320.602412,35.3503912 320.335287,36.1354186 319.801027,36.1354186 L308.817341,36.1354186 Z M308.817341,42.4 C308.314508,42.4 308.063096,41.6149726 308.063096,40.0448942 C308.063096,38.4748158 308.314508,37.6897884 308.817341,37.6897884 L319.801027,37.6897884 C320.335287,37.6897884 320.602412,38.4748158 320.602412,40.0448942 C320.602412,41.6149726 320.335287,42.4 319.801027,42.4 L308.817341,42.4 Z M308.817341,23.6062557 C308.314508,23.6062557 308.063096,22.8212283 308.063096,21.25115 C308.063096,19.6810716 308.314508,18.8960442 308.817341,18.8960442 L319.801027,18.8960442 C320.335287,18.8960442 320.602412,19.6810716 320.602412,21.25115 C320.602412,22.8212283 320.335287,23.6062557 319.801027,23.6062557 L308.817341,23.6062557 Z M308.817341,29.8708372 C308.314508,29.8708372 308.063096,29.0858098 308.063096,27.5157314 C308.063096,25.945653 308.314508,25.1606256 308.817341,25.1606256 L319.801027,25.1606256 C320.335287,25.1606256 320.602412,25.945653 320.602412,27.5157314 C320.602412,29.0858098 320.335287,29.8708372 319.801027,29.8708372 L308.817341,29.8708372 Z M340.165631,11.0770929 C339.662799,11.0770929 339.411386,10.2920655 339.411386,8.72198712 C339.411386,7.15190874 339.662799,6.36688132 340.165631,6.36688132 L351.149318,6.36688132 C351.683577,6.36688132 351.950702,7.15190874 351.950702,8.72198712 C351.950702,10.2920655 351.683577,11.0770929 351.149318,11.0770929 L340.165631,11.0770929 Z M340.165631,17.3416743 C339.662799,17.3416743 339.411386,16.5566469 339.411386,14.9865685 C339.411386,13.4164902 339.662799,12.6314627 340.165631,12.6314627 L351.149318,12.6314627 C351.683577,12.6314627 351.950702,13.4164902 351.950702,14.9865685 C351.950702,16.5566469 351.683577,17.3416743 351.149318,17.3416743 L340.165631,17.3416743 Z M340.165631,29.8708372 C339.662799,29.8708372 339.411386,29.0858098 339.411386,27.5157314 C339.411386,25.945653 339.662799,25.1606256 340.165631,25.1606256 L351.149318,25.1606256 C351.683577,25.1606256 351.950702,25.945653 351.950702,27.5157314 C351.950702,29.0858098 351.683577,29.8708372 351.149318,29.8708372 L340.165631,29.8708372 Z M340.165631,23.6062557 C339.662799,23.6062557 339.411386,22.8212283 339.411386,21.25115 C339.411386,19.6810716 339.662799,18.8960442 340.165631,18.8960442 L382.497608,18.8960442 C383.031867,18.8960442 383.298993,19.6810716 383.298993,21.25115 C383.298993,22.8212283 383.031867,23.6062557 382.497608,23.6062557 L340.165631,23.6062557 Z M340.165631,36.1354186 C339.662799,36.1354186 339.411386,35.3503912 339.411386,33.7803128 C339.411386,32.2102344 339.662799,31.425207 340.165631,31.425207 L351.149318,31.425207 C351.683577,31.425207 351.950702,32.2102344 351.950702,33.7803128 C351.950702,35.3503912 351.683577,36.1354186 351.149318,36.1354186 L340.165631,36.1354186 Z M340.165631,4.8125115 C339.662799,4.8125115 339.411386,4.02748408 339.411386,2.4574057 C339.411386,0.887327323 339.662799,0.102299908 340.165631,0.102299908 L351.149318,0.102299908 C351.683577,0.102299908 351.950702,0.887327323 351.950702,2.4574057 C351.950702,4.02748408 351.683577,4.8125115 351.149318,4.8125115 L340.165631,4.8125115 Z M340.165631,42.4 C339.662799,42.4 339.411386,41.6149726 339.411386,40.0448942 C339.411386,38.4748158 339.662799,37.6897884 340.165631,37.6897884 L351.149318,37.6897884 C351.683577,37.6897884 351.950702,38.4748158 351.950702,40.0448942 C351.950702,41.6149726 351.683577,42.4 351.149318,42.4 L340.165631,42.4 Z M371.513921,11.0770929 C371.011089,11.0770929 370.759677,10.2920655 370.759677,8.72198712 C370.759677,7.15190874 371.011089,6.36688132 371.513921,6.36688132 L382.497608,6.36688132 C383.031867,6.36688132 383.298993,7.15190874 383.298993,8.72198712 C383.298993,10.2920655 383.031867,11.0770929 382.497608,11.0770929 L371.513921,11.0770929 Z M371.513921,17.3416743 C371.011089,17.3416743 370.759677,16.5566469 370.759677,14.9865685 C370.759677,13.4164902 371.011089,12.6314627 371.513921,12.6314627 L382.497608,12.6314627 C383.031867,12.6314627 383.298993,13.4164902 383.298993,14.9865685 C383.298993,16.5566469 383.031867,17.3416743 382.497608,17.3416743 L371.513921,17.3416743 Z M371.513921,29.8708372 C371.011089,29.8708372 370.759677,29.0858098 370.759677,27.5157314 C370.759677,25.945653 371.011089,25.1606256 371.513921,25.1606256 L382.497608,25.1606256 C383.031867,25.1606256 383.298993,25.945653 383.298993,27.5157314 C383.298993,29.0858098 383.031867,29.8708372 382.497608,29.8708372 L371.513921,29.8708372 Z M371.513921,36.1354186 C371.011089,36.1354186 370.759677,35.3503912 370.759677,33.7803128 C370.759677,32.2102344 371.011089,31.425207 371.513921,31.425207 L382.497608,31.425207 C383.031867,31.425207 383.298993,32.2102344 383.298993,33.7803128 C383.298993,35.3503912 383.031867,36.1354186 382.497608,36.1354186 L371.513921,36.1354186 Z M371.513921,4.8125115 C371.011089,4.8125115 370.759677,4.02748408 370.759677,2.4574057 C370.759677,0.887327323 371.011089,0.102299908 371.513921,0.102299908 L382.497608,0.102299908 C383.031867,0.102299908 383.298993,0.887327323 383.298993,2.4574057 C383.298993,4.02748408 383.031867,4.8125115 382.497608,4.8125115 L371.513921,4.8125115 Z M371.513921,42.4 C371.011089,42.4 370.759677,41.6149726 370.759677,40.0448942 C370.759677,38.4748158 371.011089,37.6897884 371.513921,37.6897884 L382.497608,37.6897884 C383.031867,37.6897884 383.298993,38.4748158 383.298993,40.0448942 C383.298993,41.6149726 383.031867,42.4 382.497608,42.4 L371.513921,42.4 Z M390.322895,11.0770929 C389.820063,11.0770929 389.568651,10.2920655 389.568651,8.72198712 C389.568651,7.15190874 389.820063,6.36688132 390.322895,6.36688132 L401.306582,6.36688132 C401.840841,6.36688132 402.107967,7.15190874 402.107967,8.72198712 C402.107967,10.2920655 401.840841,11.0770929 401.306582,11.0770929 L390.322895,11.0770929 Z M421.671186,11.0770929 C421.168354,11.0770929 420.916941,10.2920655 420.916941,8.72198712 C420.916941,7.15190874 421.168354,6.36688132 421.671186,6.36688132 L432.654872,6.36688132 C433.189132,6.36688132 433.456257,7.15190874 433.456257,8.72198712 C433.456257,10.2920655 433.189132,11.0770929 432.654872,11.0770929 L421.671186,11.0770929 Z M396.592554,4.8125115 C396.089721,4.8125115 395.838309,4.02748408 395.838309,2.4574057 C395.838309,0.887327323 396.089721,0.102299908 396.592554,0.102299908 L426.385214,0.102299908 C426.919474,0.102299908 427.186599,0.887327323 427.186599,2.4574057 C427.186599,4.02748408 426.919474,4.8125115 426.385214,4.8125115 L396.592554,4.8125115 Z M390.322895,17.3416743 C389.820063,17.3416743 389.568651,16.5566469 389.568651,14.9865685 C389.568651,13.4164902 389.820063,12.6314627 390.322895,12.6314627 L401.306582,12.6314627 C401.840841,12.6314627 402.107967,13.4164902 402.107967,14.9865685 C402.107967,16.5566469 401.840841,17.3416743 401.306582,17.3416743 L390.322895,17.3416743 Z M421.671186,17.3416743 C421.168354,17.3416743 420.916941,16.5566469 420.916941,14.9865685 C420.916941,13.4164902 421.168354,12.6314627 421.671186,12.6314627 L432.654872,12.6314627 C433.189132,12.6314627 433.456257,13.4164902 433.456257,14.9865685 C433.456257,16.5566469 433.189132,17.3416743 432.654872,17.3416743 L421.671186,17.3416743 Z M390.322895,29.8708372 C389.820063,29.8708372 389.568651,29.0858098 389.568651,27.5157314 C389.568651,25.945653 389.820063,25.1606256 390.322895,25.1606256 L401.306582,25.1606256 C401.840841,25.1606256 402.107967,25.945653 402.107967,27.5157314 C402.107967,29.0858098 401.840841,29.8708372 401.306582,29.8708372 L390.322895,29.8708372 Z M421.671186,29.8708372 C421.168354,29.8708372 420.916941,29.0858098 420.916941,27.5157314 C420.916941,25.945653 421.168354,25.1606256 421.671186,25.1606256 L432.654872,25.1606256 C433.189132,25.1606256 433.456257,25.945653 433.456257,27.5157314 C433.456257,29.0858098 433.189132,29.8708372 432.654872,29.8708372 L421.671186,29.8708372 Z M390.322895,23.6062557 C389.820063,23.6062557 389.568651,22.8212283 389.568651,21.25115 C389.568651,19.6810716 389.820063,18.8960442 390.322895,18.8960442 L401.306582,18.8960442 C401.840841,18.8960442 402.107967,19.6810716 402.107967,21.25115 C402.107967,22.8212283 401.840841,23.6062557 401.306582,23.6062557 L390.322895,23.6062557 Z M390.322895,36.1354186 C389.820063,36.1354186 389.568651,35.3503912 389.568651,33.7803128 C389.568651,32.2102344 389.820063,31.425207 390.322895,31.425207 L401.306582,31.425207 C401.840841,31.425207 402.107967,32.2102344 402.107967,33.7803128 C402.107967,35.3503912 401.840841,36.1354186 401.306582,36.1354186 L390.322895,36.1354186 Z M421.671186,36.1354186 C421.168354,36.1354186 420.916941,35.3503912 420.916941,33.7803128 C420.916941,32.2102344 421.168354,31.425207 421.671186,31.425207 L432.654872,31.425207 C433.189132,31.425207 433.456257,32.2102344 433.456257,33.7803128 C433.456257,35.3503912 433.189132,36.1354186 432.654872,36.1354186 L421.671186,36.1354186 Z M396.592554,42.4 C396.089721,42.4 395.838309,41.6149726 395.838309,40.0448942 C395.838309,38.4748158 396.089721,37.6897884 396.592554,37.6897884 L426.385214,37.6897884 C426.919474,37.6897884 427.186599,38.4748158 427.186599,40.0448942 C427.186599,41.6149726 426.919474,42.4 426.385214,42.4 L396.592554,42.4 Z M421.671186,23.6062557 C421.168354,23.6062557 420.916941,22.8212283 420.916941,21.25115 C420.916941,19.6810716 421.168354,18.8960442 421.671186,18.8960442 L432.654872,18.8960442 C433.189132,18.8960442 433.456257,19.6810716 433.456257,21.25115 C433.456257,22.8212283 433.189132,23.6062557 432.654872,23.6062557 L421.671186,23.6062557 Z M440.48016,11.0770929 C439.977328,11.0770929 439.725915,10.2920655 439.725915,8.72198712 C439.725915,7.15190874 439.977328,6.36688132 440.48016,6.36688132 L457.733505,6.36688132 C458.267764,6.36688132 458.53489,7.15190874 458.53489,8.72198712 C458.53489,10.2920655 458.267764,11.0770929 457.733505,11.0770929 L440.48016,11.0770929 Z M440.48016,17.3416743 C439.977328,17.3416743 439.725915,16.5566469 439.725915,14.9865685 C439.725915,13.4164902 439.977328,12.6314627 440.48016,12.6314627 L464.003163,12.6314627 C464.537422,12.6314627 464.804548,13.4164902 464.804548,14.9865685 C464.804548,16.5566469 464.537422,17.3416743 464.003163,17.3416743 L440.48016,17.3416743 Z M440.48016,29.8708372 C439.977328,29.8708372 439.725915,29.0858098 439.725915,27.5157314 C439.725915,25.945653 439.977328,25.1606256 440.48016,25.1606256 L451.463847,25.1606256 C451.998106,25.1606256 452.265232,25.945653 452.265232,27.5157314 C452.265232,29.0858098 451.998106,29.8708372 451.463847,29.8708372 L440.48016,29.8708372 Z M440.48016,36.1354186 C439.977328,36.1354186 439.725915,35.3503912 439.725915,33.7803128 C439.725915,32.2102344 439.977328,31.425207 440.48016,31.425207 L451.463847,31.425207 C451.998106,31.425207 452.265232,32.2102344 452.265232,33.7803128 C452.265232,35.3503912 451.998106,36.1354186 451.463847,36.1354186 L440.48016,36.1354186 Z M440.48016,4.8125115 C439.977328,4.8125115 439.725915,4.02748408 439.725915,2.4574057 C439.725915,0.887327323 439.977328,0.102299908 440.48016,0.102299908 L451.463847,0.102299908 C451.998106,0.102299908 452.265232,0.887327323 452.265232,2.4574057 C452.265232,4.02748408 451.998106,4.8125115 451.463847,4.8125115 L440.48016,4.8125115 Z M440.48016,42.4 C439.977328,42.4 439.725915,41.6149726 439.725915,40.0448942 C439.725915,38.4748158 439.977328,37.6897884 440.48016,37.6897884 L451.463847,37.6897884 C451.998106,37.6897884 452.265232,38.4748158 452.265232,40.0448942 C452.265232,41.6149726 451.998106,42.4 451.463847,42.4 L440.48016,42.4 Z M471.82845,11.0770929 C471.325618,11.0770929 471.074206,10.2920655 471.074206,8.72198712 C471.074206,7.15190874 471.325618,6.36688132 471.82845,6.36688132 L482.812137,6.36688132 C483.346396,6.36688132 483.613522,7.15190874 483.613522,8.72198712 C483.613522,10.2920655 483.346396,11.0770929 482.812137,11.0770929 L471.82845,11.0770929 Z M459.289134,29.8708372 C458.786302,29.8708372 458.53489,29.0858098 458.53489,27.5157314 C458.53489,25.945653 458.786302,25.1606256 459.289134,25.1606256 L482.812137,25.1606256 C483.346396,25.1606256 483.613522,25.945653 483.613522,27.5157314 C483.613522,29.0858098 483.346396,29.8708372 482.812137,29.8708372 L459.289134,29.8708372 Z M465.558792,36.1354186 C465.05596,36.1354186 464.804548,35.3503912 464.804548,33.7803128 C464.804548,32.2102344 465.05596,31.425207 465.558792,31.425207 L482.812137,31.425207 C483.346396,31.425207 483.613522,32.2102344 483.613522,33.7803128 C483.613522,35.3503912 483.346396,36.1354186 482.812137,36.1354186 L465.558792,36.1354186 Z M471.82845,4.8125115 C471.325618,4.8125115 471.074206,4.02748408 471.074206,2.4574057 C471.074206,0.887327323 471.325618,0.102299908 471.82845,0.102299908 L482.812137,0.102299908 C483.346396,0.102299908 483.613522,0.887327323 483.613522,2.4574057 C483.613522,4.02748408 483.346396,4.8125115 482.812137,4.8125115 L471.82845,4.8125115 Z M471.82845,42.4 C471.325618,42.4 471.074206,41.6149726 471.074206,40.0448942 C471.074206,38.4748158 471.325618,37.6897884 471.82845,37.6897884 L482.812137,37.6897884 C483.346396,37.6897884 483.613522,38.4748158 483.613522,40.0448942 C483.613522,41.6149726 483.346396,42.4 482.812137,42.4 L471.82845,42.4 Z M440.48016,23.6062557 C439.977328,23.6062557 439.725915,22.8212283 439.725915,21.25115 C439.725915,19.6810716 439.977328,18.8960442 440.48016,18.8960442 L482.812137,18.8960442 C483.346396,18.8960442 483.613522,19.6810716 483.613522,21.25115 C483.613522,22.8212283 483.346396,23.6062557 482.812137,23.6062557 L440.48016,23.6062557 Z M471.82845,17.3416743 C471.325618,17.3416743 471.074206,16.5566469 471.074206,14.9865685 C471.074206,13.4164902 471.325618,12.6314627 471.82845,12.6314627 L482.812137,12.6314627 C483.346396,12.6314627 483.613522,13.4164902 483.613522,14.9865685 C483.613522,16.5566469 483.346396,17.3416743 482.812137,17.3416743 L471.82845,17.3416743 Z" id="REACTATHON-BACK" fill="#FFFA42"></path>
                    <path d="M4.80388979,3.34793008 L42.4218382,3.34793008 L42.4218382,9.6125115 L48.6914962,9.6125115 L48.6914962,28.4062557 L36.1521801,28.4062557 L36.1521801,34.6708372 L42.4218382,34.6708372 L42.4218382,40.9354186 L48.6914962,40.9354186 L48.6914962,47.2 L29.882522,47.2 L29.882522,40.9354186 L23.612864,40.9354186 L23.612864,34.6708372 L17.3432059,34.6708372 L17.3432059,47.2 L4.80388979,47.2 L4.80388979,3.34793008 Z M17.3432059,9.6125115 L17.3432059,28.4062557 L29.882522,28.4062557 L29.882522,22.1416743 L36.1521801,22.1416743 L36.1521801,9.6125115 L17.3432059,9.6125115 Z M54.9611543,3.34793008 L98.8487607,3.34793008 L98.8487607,9.6125115 L67.5004704,9.6125115 L67.5004704,22.1416743 L92.5791027,22.1416743 L92.5791027,28.4062557 L67.5004704,28.4062557 L67.5004704,40.9354186 L98.8487607,40.9354186 L98.8487607,47.2 L54.9611543,47.2 L54.9611543,3.34793008 Z M117.657735,3.34793008 L136.466709,3.34793008 L136.466709,9.6125115 L142.736367,9.6125115 L142.736367,15.8770929 L149.006025,15.8770929 L149.006025,47.2 L136.466709,47.2 L136.466709,34.6708372 L117.657735,34.6708372 L117.657735,47.2 L105.118419,47.2 L105.118419,15.8770929 L111.388077,15.8770929 L111.388077,9.6125115 L117.657735,9.6125115 L117.657735,3.34793008 Z M123.927393,9.6125115 L123.927393,15.8770929 L117.657735,15.8770929 L117.657735,28.4062557 L136.466709,28.4062557 L136.466709,15.8770929 L130.197051,15.8770929 L130.197051,9.6125115 L123.927393,9.6125115 Z M167.814999,3.34793008 L192.893632,3.34793008 L192.893632,9.6125115 L199.16329,9.6125115 L199.16329,15.8770929 L186.623974,15.8770929 L186.623974,9.6125115 L174.084657,9.6125115 L174.084657,15.8770929 L167.814999,15.8770929 L167.814999,34.6708372 L174.084657,34.6708372 L174.084657,40.9354186 L186.623974,40.9354186 L186.623974,34.6708372 L199.16329,34.6708372 L199.16329,40.9354186 L192.893632,40.9354186 L192.893632,47.2 L167.814999,47.2 L167.814999,40.9354186 L161.545341,40.9354186 L161.545341,34.6708372 L155.275683,34.6708372 L155.275683,15.8770929 L161.545341,15.8770929 L161.545341,9.6125115 L167.814999,9.6125115 L167.814999,3.34793008 Z M206.898716,3.34793008 L244.516664,3.34793008 L244.516664,9.6125115 L231.977348,9.6125115 L231.977348,47.2 L219.438032,47.2 L219.438032,9.6125115 L206.898716,9.6125115 L206.898716,3.34793008 Z M263.325639,3.34793008 L282.134613,3.34793008 L282.134613,9.6125115 L288.404271,9.6125115 L288.404271,15.8770929 L294.673929,15.8770929 L294.673929,47.2 L282.134613,47.2 L282.134613,34.6708372 L263.325639,34.6708372 L263.325639,47.2 L250.786323,47.2 L250.786323,15.8770929 L257.055981,15.8770929 L257.055981,9.6125115 L263.325639,9.6125115 L263.325639,3.34793008 Z M269.595297,9.6125115 L269.595297,15.8770929 L263.325639,15.8770929 L263.325639,28.4062557 L282.134613,28.4062557 L282.134613,15.8770929 L275.864955,15.8770929 L275.864955,9.6125115 L269.595297,9.6125115 Z M300.32767,3.34793008 L337.945618,3.34793008 L337.945618,9.6125115 L325.406302,9.6125115 L325.406302,47.2 L312.866986,47.2 L312.866986,9.6125115 L300.32767,9.6125115 L300.32767,3.34793008 Z M344.215276,3.34793008 L356.754592,3.34793008 L356.754592,22.1416743 L375.563566,22.1416743 L375.563566,3.34793008 L388.102883,3.34793008 L388.102883,47.2 L375.563566,47.2 L375.563566,28.4062557 L356.754592,28.4062557 L356.754592,47.2 L344.215276,47.2 L344.215276,3.34793008 Z M400.642199,3.34793008 L431.990489,3.34793008 L431.990489,9.6125115 L438.260147,9.6125115 L438.260147,40.9354186 L431.990489,40.9354186 L431.990489,47.2 L400.642199,47.2 L400.642199,40.9354186 L394.372541,40.9354186 L394.372541,9.6125115 L400.642199,9.6125115 L400.642199,3.34793008 Z M406.911857,9.6125115 L406.911857,40.9354186 L425.720831,40.9354186 L425.720831,9.6125115 L406.911857,9.6125115 Z M444.529805,3.34793008 L457.069121,3.34793008 L457.069121,9.6125115 L463.338779,9.6125115 L463.338779,15.8770929 L469.608437,15.8770929 L469.608437,22.1416743 L475.878095,22.1416743 L475.878095,3.34793008 L488.417412,3.34793008 L488.417412,47.2 L475.878095,47.2 L475.878095,40.9354186 L469.608437,40.9354186 L469.608437,34.6708372 L463.338779,34.6708372 L463.338779,28.4062557 L457.069121,28.4062557 L457.069121,47.2 L444.529805,47.2 L444.529805,3.34793008 Z" id="REACTATHON-MIDDLE" fill="#FF6400"></path>
                    <path d="M53.495386,26.9416743 C53.495386,28.7001621 52.7882888,30.4272224 51.3740731,32.1229071 C51.154084,32.3741196 49.8655958,33.645864 47.5085697,35.9381785 C46.094354,37.3198474 45.3872568,38.4973886 45.3872568,39.4708372 C45.3872568,40.3500811 45.7015222,41.0880068 46.3300625,41.6846366 C48.5928076,43.8827463 49.9127224,45.1701913 50.2898466,45.5470101 C52.4268836,47.7451199 53.495386,49.3779769 53.495386,50.4456302 C53.495386,50.9794568 53.086841,51.3876711 52.2697386,51.6702852 C51.6726253,51.8900962 51.0440944,52 50.3841271,52 L44.1144691,52 L25.3054949,39.4708372 C23.1684579,39.4708372 22.0999554,41.0094909 22.0999554,44.0868445 C22.0999554,44.4636633 22.1156687,45.0131825 22.1470957,45.7354186 C22.1785227,46.4576546 22.194236,47.0071738 22.194236,47.3839926 C22.194236,50.4613463 21.1414468,52 19.0358368,52 L12.7661788,52 C11.8862223,52 11.1398419,51.6938393 10.5270152,51.0815087 C9.91418837,50.4691782 9.60777958,49.7234021 9.60777958,48.8441582 L9.60777958,11.2566697 C9.60777958,10.3774258 9.91418837,9.63950007 10.5270152,9.04287029 C11.1398419,8.4462405 11.8862223,8.14793008 12.7661788,8.14793008 L44.1144691,8.14793008 C46.3143601,8.14793008 48.4277951,9.16061545 50.4548376,11.1860166 C52.48188,13.2114177 53.495386,15.3231414 53.495386,17.5212511 L53.495386,26.9416743 Z M40.9560699,23.7858326 L40.9560699,17.5212511 C40.9560699,16.6734088 40.6496611,15.9433333 40.0368343,15.3310028 C39.4240075,14.7186722 38.6933404,14.4125115 37.844811,14.4125115 L25.3054949,14.4125115 C24.4255385,14.4125115 23.6791581,14.7108219 23.0663313,15.3074517 C22.4535045,15.9040815 22.1470957,16.6420073 22.1470957,17.5212511 L22.1470957,30.050414 C22.1470957,30.9296579 22.4535045,31.6754339 23.0663313,32.2877645 C23.6791581,32.9000951 24.4255385,33.2062557 25.3054949,33.2062557 L31.5751529,33.2062557 C33.775044,33.2062557 35.888479,32.1857201 37.9155214,30.1446182 C39.9425639,28.1035163 40.9560699,25.9839423 40.9560699,23.7858326 Z M59.7650441,11.3037718 C59.7650441,10.424528 60.0714529,9.67875191 60.6842797,9.06642134 C61.2971064,8.45409077 62.0434868,8.14793008 62.9234433,8.14793008 L100.541392,8.14793008 C101.421348,8.14793008 102.159872,8.45409077 102.756985,9.06642134 C103.354098,9.67875191 103.652651,10.424528 103.652651,11.3037718 C103.652651,12.1516142 103.346242,12.8816897 102.733415,13.4940202 C102.120588,14.1063508 101.389921,14.4125115 100.541392,14.4125115 L75.4627594,14.4125115 C74.582803,14.4125115 73.8364226,14.7186722 73.2235958,15.3310028 C72.610769,15.9433333 72.3043602,16.6891094 72.3043602,17.5683533 L72.3043602,23.7858326 C72.3043602,24.6650765 72.610769,25.4108525 73.2235958,26.0231831 C73.8364226,26.6355136 74.582803,26.9416743 75.4627594,26.9416743 L94.2717336,26.9416743 C95.120263,26.9416743 95.8509301,27.247835 96.4637569,27.8601656 C97.0765837,28.4724962 97.3829925,29.2025717 97.3829925,30.050414 C97.3829925,30.9296579 97.0844403,31.6754339 96.487327,32.2877645 C95.8902137,32.9000951 95.15169,33.2062557 94.2717336,33.2062557 L75.4627594,33.2062557 C74.582803,33.2062557 73.8364226,33.5124164 73.2235958,34.124747 C72.610769,34.7370776 72.3043602,35.4828536 72.3043602,36.3620975 L72.3043602,42.5795768 C72.3043602,43.4588207 72.610769,44.2045968 73.2235958,44.8169273 C73.8364226,45.4292579 74.582803,45.7354186 75.4627594,45.7354186 L100.541392,45.7354186 C101.389921,45.7354186 102.120588,46.0415793 102.733415,46.6539098 C103.346242,47.2662404 103.652651,47.9963159 103.652651,48.8441582 C103.652651,49.7234021 103.354098,50.4691782 102.756985,51.0815087 C102.159872,51.6938393 101.421348,52 100.541392,52 L62.9234433,52 C62.0434868,52 61.2971064,51.6938393 60.6842797,51.0815087 C60.0714529,50.4691782 59.7650441,49.7234021 59.7650441,48.8441582 L59.7650441,11.3037718 Z M138.15934,8.14793008 C140.233523,8.14793008 142.009123,8.88585585 143.486192,10.3617295 L151.594322,18.4632935 C153.071391,19.9391671 153.809915,21.7133291 153.809915,23.7858326 L153.809915,48.8441582 C153.809915,49.7234021 153.511363,50.4691782 152.91425,51.0815087 C152.317136,51.6938393 151.578613,52 150.698656,52 L144.428998,52 C142.291961,52 141.223459,50.4613463 141.223459,47.3839926 C141.223459,47.0071738 141.239172,46.4576546 141.270599,45.7354186 C141.302026,45.0131825 141.317739,44.4636633 141.317739,44.0868445 C141.317739,41.0094909 140.26495,39.4708372 138.15934,39.4708372 L125.620024,39.4708372 C123.482987,39.4708372 122.414484,41.0094909 122.414484,44.0868445 C122.414484,44.4636633 122.430198,45.0131825 122.461625,45.7354186 C122.493052,46.4576546 122.508765,47.0071738 122.508765,47.3839926 C122.508765,50.4613463 121.455976,52 119.350366,52 L113.080708,52 C112.200751,52 111.454371,51.6938393 110.841544,51.0815087 C110.228717,50.4691782 109.922309,49.7234021 109.922309,48.8441582 L109.922309,23.7858326 C109.922309,21.7133291 110.660832,19.9391671 112.137902,18.4632935 L120.246031,10.3617295 C121.723101,8.88585585 123.514414,8.14793008 125.620024,8.14793008 L138.15934,8.14793008 Z M141.270599,30.050414 L141.270599,23.7858326 C141.270599,21.5877228 140.257093,19.4759991 138.23005,17.450598 C136.203008,15.4251969 134.089573,14.4125115 131.889682,14.4125115 C129.689791,14.4125115 127.568499,15.4251969 125.525743,17.450598 C123.482987,19.4759991 122.461625,21.5877228 122.461625,23.7858326 L122.461625,30.050414 C122.461625,30.9296579 122.768034,31.6754339 123.38086,32.2877645 C123.993687,32.9000951 124.740067,33.2062557 125.620024,33.2062557 L138.15934,33.2062557 C139.039296,33.2062557 139.77782,32.9000951 140.374933,32.2877645 C140.972047,31.6754339 141.270599,30.9296579 141.270599,30.050414 Z M175.777288,8.14793008 L194.586263,8.14793008 C196.786154,8.14793008 198.899589,9.16061545 200.926631,11.1860166 C202.953674,13.2114177 203.96718,15.3231414 203.96718,17.5212511 C203.96718,18.400495 203.668627,19.1462711 203.071514,19.7586017 C202.474401,20.3709322 201.735877,20.6770929 200.855921,20.6770929 L194.586263,20.6770929 C193.266328,20.6770929 192.370671,20.1432743 191.899266,19.075621 C191.584996,18.0393692 191.270731,17.0188336 190.956461,16.0139834 C190.485055,14.9463301 189.605112,14.4125115 188.316605,14.4125115 L182.046946,14.4125115 C179.847055,14.4125115 177.725764,15.4251969 175.683008,17.450598 C173.640252,19.4759991 172.618889,21.5877228 172.618889,23.7858326 L172.618889,36.3620975 C172.618889,38.5602072 173.640252,40.671931 175.683008,42.6973321 C177.725764,44.7227332 179.847055,45.7354186 182.046946,45.7354186 L188.316605,45.7354186 C189.605112,45.7354186 190.485055,45.2015999 190.956461,44.1339466 C191.270731,43.1290965 191.584996,42.1085608 191.899266,41.0723091 C192.370671,40.0046558 193.266328,39.4708372 194.586263,39.4708372 L200.855921,39.4708372 C201.70445,39.4708372 202.435117,39.7769979 203.047944,40.3893284 C203.660771,41.001659 203.96718,41.7317345 203.96718,42.5795768 C203.96718,44.7776866 202.953674,46.8972606 200.926631,48.9383625 C198.899589,50.9794644 196.786154,52 194.586263,52 L175.777288,52 C173.671678,52 171.880365,51.2620742 170.403296,49.7862006 L162.295167,41.6846366 C160.818097,40.2087629 160.079573,38.434601 160.079573,36.3620975 L160.079573,23.7858326 C160.079573,21.7133291 160.818097,19.9391671 162.295167,18.4632935 L170.403296,10.3617295 C171.880365,8.88585585 173.671678,8.14793008 175.777288,8.14793008 Z M211.702606,11.2566697 C211.702606,10.3774258 212.009015,9.63950007 212.621841,9.04287029 C213.234668,8.4462405 213.981049,8.14793008 214.861005,8.14793008 L246.209295,8.14793008 C247.057825,8.14793008 247.788492,8.45409077 248.401319,9.06642134 C249.014145,9.67875191 249.320554,10.4088274 249.320554,11.2566697 C249.320554,13.3919763 247.780654,14.4596136 244.700806,14.4596136 C244.323682,14.4596136 243.773718,14.4439131 243.050896,14.4125115 C242.328075,14.3811099 241.77811,14.3654094 241.400986,14.3654094 C238.321139,14.3654094 236.781238,15.4173461 236.781238,17.5212511 L236.781238,48.8441582 C236.781238,49.7234021 236.482686,50.4691782 235.885573,51.0815087 C235.288459,51.6938393 234.549936,52 233.669979,52 L227.400321,52 C226.520365,52 225.773984,51.6938393 225.161158,51.0815087 C224.548331,50.4691782 224.241922,49.7234021 224.241922,48.8441582 L224.241922,17.5212511 C224.241922,15.4173461 222.702021,14.3654094 219.622174,14.3654094 C219.24505,14.3654094 218.695085,14.3811099 217.972264,14.4125115 C217.249443,14.4439131 216.699478,14.4596136 216.322354,14.4596136 C213.242506,14.4596136 211.702606,13.3919763 211.702606,11.2566697 Z M283.827244,8.14793008 C285.901427,8.14793008 287.677026,8.88585585 289.154096,10.3617295 L297.262225,18.4632935 C298.739295,19.9391671 299.477819,21.7133291 299.477819,23.7858326 L299.477819,48.8441582 C299.477819,49.7234021 299.179267,50.4691782 298.582153,51.0815087 C297.98504,51.6938393 297.246516,52 296.36656,52 L290.096902,52 C287.959865,52 286.891362,50.4613463 286.891362,47.3839926 C286.891362,47.0071738 286.907076,46.4576546 286.938503,45.7354186 C286.96993,45.0131825 286.985643,44.4636633 286.985643,44.0868445 C286.985643,41.0094909 285.932854,39.4708372 283.827244,39.4708372 L271.287928,39.4708372 C269.150891,39.4708372 268.082388,41.0094909 268.082388,44.0868445 C268.082388,44.4636633 268.098101,45.0131825 268.129528,45.7354186 C268.160955,46.4576546 268.176669,47.0071738 268.176669,47.3839926 C268.176669,50.4613463 267.12388,52 265.01827,52 L258.748611,52 C257.868655,52 257.122275,51.6938393 256.509448,51.0815087 C255.896621,50.4691782 255.590212,49.7234021 255.590212,48.8441582 L255.590212,23.7858326 C255.590212,21.7133291 256.328736,19.9391671 257.805806,18.4632935 L265.913935,10.3617295 C267.391005,8.88585585 269.182318,8.14793008 271.287928,8.14793008 L283.827244,8.14793008 Z M286.938503,30.050414 L286.938503,23.7858326 C286.938503,21.5877228 285.924997,19.4759991 283.897954,17.450598 C281.870912,15.4251969 279.757477,14.4125115 277.557586,14.4125115 C275.357695,14.4125115 273.236403,15.4251969 271.193647,17.450598 C269.150891,19.4759991 268.129528,21.5877228 268.129528,23.7858326 L268.129528,30.050414 C268.129528,30.9296579 268.435937,31.6754339 269.048764,32.2877645 C269.661591,32.9000951 270.407971,33.2062557 271.287928,33.2062557 L283.827244,33.2062557 C284.7072,33.2062557 285.445724,32.9000951 286.042837,32.2877645 C286.63995,31.6754339 286.938503,30.9296579 286.938503,30.050414 Z M305.13156,11.2566697 C305.13156,10.3774258 305.437968,9.63950007 306.050795,9.04287029 C306.663622,8.4462405 307.410002,8.14793008 308.289959,8.14793008 L339.638249,8.14793008 C340.486778,8.14793008 341.217446,8.45409077 341.830272,9.06642134 C342.443099,9.67875191 342.749508,10.4088274 342.749508,11.2566697 C342.749508,13.3919763 341.209607,14.4596136 338.12976,14.4596136 C337.752636,14.4596136 337.202671,14.4439131 336.47985,14.4125115 C335.757028,14.3811099 335.207064,14.3654094 334.82994,14.3654094 C331.750092,14.3654094 330.210192,15.4173461 330.210192,17.5212511 L330.210192,48.8441582 C330.210192,49.7234021 329.91164,50.4691782 329.314526,51.0815087 C328.717413,51.6938393 327.978889,52 327.098933,52 L320.829275,52 C319.949318,52 319.202938,51.6938393 318.590111,51.0815087 C317.977284,50.4691782 317.670876,49.7234021 317.670876,48.8441582 L317.670876,17.5212511 C317.670876,15.4173461 316.130975,14.3654094 313.051128,14.3654094 C312.674003,14.3654094 312.124039,14.3811099 311.401218,14.4125115 C310.678396,14.4439131 310.128432,14.4596136 309.751308,14.4596136 C306.67146,14.4596136 305.13156,13.3919763 305.13156,11.2566697 Z M383.525855,8.14793008 L389.795514,8.14793008 C390.67547,8.14793008 391.413994,8.45409077 392.011107,9.06642134 C392.60822,9.67875191 392.906772,10.424528 392.906772,11.3037718 L392.906772,48.8441582 C392.906772,49.7234021 392.60822,50.4691782 392.011107,51.0815087 C391.413994,51.6938393 390.67547,52 389.795514,52 L383.525855,52 C382.645899,52 381.899519,51.6938393 381.286692,51.0815087 C380.673865,50.4691782 380.367456,49.7234021 380.367456,48.8441582 L380.367456,36.3620975 C380.367456,35.4828536 380.068904,34.7370776 379.471791,34.124747 C378.874678,33.5124164 378.136154,33.2062557 377.256197,33.2062557 L364.716881,33.2062557 C363.836925,33.2062557 363.090544,33.5124164 362.477718,34.124747 C361.864891,34.7370776 361.558482,35.4828536 361.558482,36.3620975 L361.558482,48.8441582 C361.558482,49.7234021 361.25993,50.4691782 360.662817,51.0815087 C360.065703,51.6938393 359.32718,52 358.447223,52 L352.177565,52 C351.297609,52 350.551228,51.6938393 349.938402,51.0815087 C349.325575,50.4691782 349.019166,49.7234021 349.019166,48.8441582 L349.019166,11.3037718 C349.019166,10.424528 349.325575,9.67875191 349.938402,9.06642134 C350.551228,8.45409077 351.297609,8.14793008 352.177565,8.14793008 L358.447223,8.14793008 C359.32718,8.14793008 360.065703,8.45409077 360.662817,9.06642134 C361.25993,9.67875191 361.558482,10.424528 361.558482,11.3037718 L361.558482,23.7858326 C361.558482,24.6650765 361.864891,25.4108525 362.477718,26.0231831 C363.090544,26.6355136 363.836925,26.9416743 364.716881,26.9416743 L377.256197,26.9416743 C378.136154,26.9416743 378.874678,26.6355136 379.471791,26.0231831 C380.068904,25.4108525 380.367456,24.6650765 380.367456,23.7858326 L380.367456,11.3037718 C380.367456,10.424528 380.673865,9.67875191 381.286692,9.06642134 C381.899519,8.45409077 382.645899,8.14793008 383.525855,8.14793008 Z M408.604488,8.14793008 L433.68312,8.14793008 C435.883011,8.14793008 437.996446,9.16061545 440.023488,11.1860166 C442.050531,13.2114177 443.064037,15.3231414 443.064037,17.5212511 L443.064037,42.5795768 C443.064037,44.7776866 442.050531,46.8972606 440.023488,48.9383625 C437.996446,50.9794644 435.883011,52 433.68312,52 L408.604488,52 C406.37317,52 404.244021,50.9873146 402.216979,48.9619135 C400.189936,46.9365124 399.17643,44.8090881 399.17643,42.5795768 L399.17643,17.5212511 C399.17643,15.3231414 400.197793,13.2114177 402.240549,11.1860166 C404.283305,9.16061545 406.404597,8.14793008 408.604488,8.14793008 Z M430.524721,42.5795768 L430.524721,17.5212511 C430.524721,16.6734088 430.218312,15.9433333 429.605485,15.3310028 C428.992658,14.7186722 428.261991,14.4125115 427.413462,14.4125115 L414.874146,14.4125115 C413.994189,14.4125115 413.247809,14.7108219 412.634982,15.3074517 C412.022155,15.9040815 411.715747,16.6420073 411.715747,17.5212511 L411.715747,42.5795768 C411.715747,43.4588207 412.022155,44.2045968 412.634982,44.8169273 C413.247809,45.4292579 413.994189,45.7354186 414.874146,45.7354186 L427.413462,45.7354186 C428.293418,45.7354186 429.031942,45.4292579 429.629055,44.8169273 C430.226169,44.2045968 430.524721,43.4588207 430.524721,42.5795768 Z M479.73918,28.5431463 C480.36772,28.5431463 480.681985,28.0093276 480.681985,26.9416743 L480.681985,11.2566697 C480.681985,10.3774258 480.988394,9.63950007 481.601221,9.04287029 C482.214048,8.4462405 482.960428,8.14793008 483.840384,8.14793008 L490.110043,8.14793008 C490.958572,8.14793008 491.689239,8.45409077 492.302066,9.06642134 C492.914893,9.67875191 493.221301,10.4088274 493.221301,11.2566697 L493.221301,48.8441582 C493.221301,49.7234021 492.922749,50.4691782 492.325636,51.0815087 C491.728523,51.6938393 490.989999,52 490.110043,52 C487.81587,52 486.307396,51.9371978 485.584575,51.8115915 C483.981797,51.5289774 482.646169,50.8538539 481.577651,49.7862006 L464.088605,32.3113155 C463.617199,31.840292 463.192941,31.6047838 462.815817,31.6047838 C462.187277,31.6047838 461.873011,32.1386025 461.873011,33.2062557 L461.873011,48.8441582 C461.873011,49.7234021 461.574459,50.4691782 460.977346,51.0815087 C460.380232,51.6938393 459.641709,52 458.761752,52 L452.492094,52 C451.612138,52 450.865757,51.6938393 450.252931,51.0815087 C449.640104,50.4691782 449.333695,49.7234021 449.333695,48.8441582 L449.333695,11.2566697 C449.333695,10.3774258 449.640104,9.63950007 450.252931,9.04287029 C450.865757,8.4462405 451.612138,8.14793008 452.492094,8.14793008 C454.754839,8.14793008 456.2476,8.21073228 456.970421,8.33633855 C458.573199,8.61895266 459.908827,9.29407623 460.977346,10.3617295 L478.466392,27.8366145 C478.937797,28.307638 479.362055,28.5431463 479.73918,28.5431463 Z" id="REACTATHON-FRONT" fill="#B52400"></path>
                </g>
            </g>
        </g>
    </g>
</svg>
