<?xml version="1.0" encoding="UTF-8"?>
<svg width="247px" height="26px" viewBox="0 0 247 26" version="1.1" xmlns="http://www.w3.org/2000/svg" xmlns:xlink="http://www.w3.org/1999/xlink">
    <!-- Generator: Sketch 50 (54983) - http://www.bohemiancoding.com/sketch -->
    <title>logo red orange yellow</title>
    <desc>Created with Sketch.</desc>
    <defs></defs>
    <g id="Page-1" stroke="none" stroke-width="1" fill="none" fill-rule="evenodd">
        <g id="Artboard-15" transform="translate(-495.000000, -202.000000)">
            <g id="logo-red-orange-yellow" transform="translate(495.000000, 202.000000)">
                <path d="M0.37712229,5.53854646 C0.125706173,5.53854646 0,5.14603275 0,4.36099356 C0,3.57595437 0.125706173,3.18344066 0.37712229,3.18344066 L5.86896563,3.18344066 C6.13609525,3.18344066 6.26965806,3.57595437 6.26965806,4.36099356 C6.26965806,5.14603275 6.13609525,5.53854646 5.86896563,5.53854646 L0.37712229,5.53854646 Z M16.0512674,5.53854646 C15.7998513,5.53854646 15.6741452,5.14603275 15.6741452,4.36099356 C15.6741452,3.57595437 15.7998513,3.18344066 16.0512674,3.18344066 L21.5431108,3.18344066 C21.8102404,3.18344066 21.9438032,3.57595437 21.9438032,4.36099356 C21.9438032,5.14603275 21.8102404,5.53854646 21.5431108,5.53854646 L16.0512674,5.53854646 Z M0.37712229,2.40625575 C0.125706173,2.40625575 0,2.01374204 0,1.22870285 C0,0.443663661 0.125706173,0.051149954 0.37712229,0.051149954 L18.4082818,0.051149954 C18.6754114,0.051149954 18.8089742,0.443663661 18.8089742,1.22870285 C18.8089742,2.01374204 18.6754114,2.40625575 18.4082818,2.40625575 L0.37712229,2.40625575 Z M0.37712229,8.67083717 C0.125706173,8.67083717 0,8.27832346 0,7.49328427 C0,6.70824508 0.125706173,6.31573137 0.37712229,6.31573137 L5.86896563,6.31573137 C6.13609525,6.31573137 6.26965806,6.70824508 6.26965806,7.49328427 C6.26965806,8.27832346 6.13609525,8.67083717 5.86896563,8.67083717 L0.37712229,8.67083717 Z M16.0512674,8.67083717 C15.7998513,8.67083717 15.6741452,8.27832346 15.6741452,7.49328427 C15.6741452,6.70824508 15.7998513,6.31573137 16.0512674,6.31573137 L21.5431108,6.31573137 C21.8102404,6.31573137 21.9438032,6.70824508 21.9438032,7.49328427 C21.9438032,8.27832346 21.8102404,8.67083717 21.5431108,8.67083717 L16.0512674,8.67083717 Z M0.37712229,14.9354186 C0.125706173,14.9354186 0,14.5429049 0,13.7578657 C0,12.9728265 0.125706173,12.5803128 0.37712229,12.5803128 L15.2734527,12.5803128 C15.5405823,12.5803128 15.6741452,12.9728265 15.6741452,13.7578657 C15.6741452,14.5429049 15.5405823,14.9354186 15.2734527,14.9354186 L0.37712229,14.9354186 Z M0.37712229,11.8031279 C0.125706173,11.8031279 0,11.4106142 0,10.625575 C0,9.84053579 0.125706173,9.44802208 0.37712229,9.44802208 L5.86896563,9.44802208 C6.13609525,9.44802208 6.26965806,9.84053579 6.26965806,10.625575 C6.26965806,11.4106142 6.13609525,11.8031279 5.86896563,11.8031279 L0.37712229,11.8031279 Z M0.37712229,18.0677093 C0.125706173,18.0677093 0,17.6751956 0,16.8901564 C0,16.1051172 0.125706173,15.7126035 0.37712229,15.7126035 L5.86896563,15.7126035 C6.13609525,15.7126035 6.26965806,16.1051172 6.26965806,16.8901564 C6.26965806,17.6751956 6.13609525,18.0677093 5.86896563,18.0677093 L0.37712229,18.0677093 Z M9.78160938,18.0677093 C9.53019327,18.0677093 9.40448709,17.6751956 9.40448709,16.8901564 C9.40448709,16.1051172 9.53019327,15.7126035 9.78160938,15.7126035 L18.4082818,15.7126035 C18.6754114,15.7126035 18.8089742,16.1051172 18.8089742,16.8901564 C18.8089742,17.6751956 18.6754114,18.0677093 18.4082818,18.0677093 L9.78160938,18.0677093 Z M0.37712229,21.2 C0.125706173,21.2 0,20.8074863 0,20.0224471 C0,19.2374079 0.125706173,18.8448942 0.37712229,18.8448942 L5.86896563,18.8448942 C6.13609525,18.8448942 6.26965806,19.2374079 6.26965806,20.0224471 C6.26965806,20.8074863 6.13609525,21.2 5.86896563,21.2 L0.37712229,21.2 Z M12.9164384,11.8031279 C12.6650223,11.8031279 12.5393161,11.4106142 12.5393161,10.625575 C12.5393161,9.84053579 12.6650223,9.44802208 12.9164384,9.44802208 L21.5431108,9.44802208 C21.8102404,9.44802208 21.9438032,9.84053579 21.9438032,10.625575 C21.9438032,11.4106142 21.8102404,11.8031279 21.5431108,11.8031279 L12.9164384,11.8031279 Z M12.9164384,21.2 C12.6650223,21.2 12.5393161,20.8074863 12.5393161,20.0224471 C12.5393161,19.2374079 12.6650223,18.8448942 12.9164384,18.8448942 L21.5431108,18.8448942 C21.8102404,18.8448942 21.9438032,19.2374079 21.9438032,20.0224471 C21.9438032,20.8074863 21.8102404,21.2 21.5431108,21.2 L12.9164384,21.2 Z M25.4557545,5.53854646 C25.2043384,5.53854646 25.0786323,5.14603275 25.0786323,4.36099356 C25.0786323,3.57595437 25.2043384,3.18344066 25.4557545,3.18344066 L30.9475979,3.18344066 C31.2147275,3.18344066 31.3482903,3.57595437 31.3482903,4.36099356 C31.3482903,5.14603275 31.2147275,5.53854646 30.9475979,5.53854646 L25.4557545,5.53854646 Z M25.4557545,2.40625575 C25.2043384,2.40625575 25.0786323,2.01374204 25.0786323,1.22870285 C25.0786323,0.443663661 25.2043384,0.051149954 25.4557545,0.051149954 L46.621743,0.051149954 C46.8888727,0.051149954 47.0224355,0.443663661 47.0224355,1.22870285 C47.0224355,2.01374204 46.8888727,2.40625575 46.621743,2.40625575 L25.4557545,2.40625575 Z M25.4557545,8.67083717 C25.2043384,8.67083717 25.0786323,8.27832346 25.0786323,7.49328427 C25.0786323,6.70824508 25.2043384,6.31573137 25.4557545,6.31573137 L30.9475979,6.31573137 C31.2147275,6.31573137 31.3482903,6.70824508 31.3482903,7.49328427 C31.3482903,8.27832346 31.2147275,8.67083717 30.9475979,8.67083717 L25.4557545,8.67083717 Z M25.4557545,14.9354186 C25.2043384,14.9354186 25.0786323,14.5429049 25.0786323,13.7578657 C25.0786323,12.9728265 25.2043384,12.5803128 25.4557545,12.5803128 L30.9475979,12.5803128 C31.2147275,12.5803128 31.3482903,12.9728265 31.3482903,13.7578657 C31.3482903,14.5429049 31.2147275,14.9354186 30.9475979,14.9354186 L25.4557545,14.9354186 Z M25.4557545,11.8031279 C25.2043384,11.8031279 25.0786323,11.4106142 25.0786323,10.625575 C25.0786323,9.84053579 25.2043384,9.44802208 25.4557545,9.44802208 L43.486914,9.44802208 C43.7540436,9.44802208 43.8876064,9.84053579 43.8876064,10.625575 C43.8876064,11.4106142 43.7540436,11.8031279 43.486914,11.8031279 L25.4557545,11.8031279 Z M25.4557545,18.0677093 C25.2043384,18.0677093 25.0786323,17.6751956 25.0786323,16.8901564 C25.0786323,16.1051172 25.2043384,15.7126035 25.4557545,15.7126035 L30.9475979,15.7126035 C31.2147275,15.7126035 31.3482903,16.1051172 31.3482903,16.8901564 C31.3482903,17.6751956 31.2147275,18.0677093 30.9475979,18.0677093 L25.4557545,18.0677093 Z M25.4557545,21.2 C25.2043384,21.2 25.0786323,20.8074863 25.0786323,20.0224471 C25.0786323,19.2374079 25.2043384,18.8448942 25.4557545,18.8448942 L46.621743,18.8448942 C46.8888727,18.8448942 47.0224355,19.2374079 47.0224355,20.0224471 C47.0224355,20.8074863 46.8888727,21.2 46.621743,21.2 L25.4557545,21.2 Z M53.6692158,5.53854646 C53.4177997,5.53854646 53.2920935,5.14603275 53.2920935,4.36099356 C53.2920935,3.57595437 53.4177997,3.18344066 53.6692158,3.18344066 L59.1610592,3.18344066 C59.4281888,3.18344066 59.5617516,3.57595437 59.5617516,4.36099356 C59.5617516,5.14603275 59.4281888,5.53854646 59.1610592,5.53854646 L53.6692158,5.53854646 Z M63.0737029,5.53854646 C62.8222868,5.53854646 62.6965806,5.14603275 62.6965806,4.36099356 C62.6965806,3.57595437 62.8222868,3.18344066 63.0737029,3.18344066 L68.5655463,3.18344066 C68.8326759,3.18344066 68.9662387,3.57595437 68.9662387,4.36099356 C68.9662387,5.14603275 68.8326759,5.53854646 68.5655463,5.53854646 L63.0737029,5.53854646 Z M56.8040449,2.40625575 C56.5526287,2.40625575 56.4269226,2.01374204 56.4269226,1.22870285 C56.4269226,0.443663661 56.5526287,0.051149954 56.8040449,0.051149954 L65.4307172,0.051149954 C65.6978469,0.051149954 65.8314097,0.443663661 65.8314097,1.22870285 C65.8314097,2.01374204 65.6978469,2.40625575 65.4307172,2.40625575 L56.8040449,2.40625575 Z M50.5343868,8.67083717 C50.2829707,8.67083717 50.1572645,8.27832346 50.1572645,7.49328427 C50.1572645,6.70824508 50.2829707,6.31573137 50.5343868,6.31573137 L56.0262301,6.31573137 C56.2933598,6.31573137 56.4269226,6.70824508 56.4269226,7.49328427 C56.4269226,8.27832346 56.2933598,8.67083717 56.0262301,8.67083717 L50.5343868,8.67083717 Z M66.208532,8.67083717 C65.9571158,8.67083717 65.8314097,8.27832346 65.8314097,7.49328427 C65.8314097,6.70824508 65.9571158,6.31573137 66.208532,6.31573137 L71.7003753,6.31573137 C71.9675049,6.31573137 72.1010677,6.70824508 72.1010677,7.49328427 C72.1010677,8.27832346 71.9675049,8.67083717 71.7003753,8.67083717 L66.208532,8.67083717 Z M50.5343868,11.8031279 C50.2829707,11.8031279 50.1572645,11.4106142 50.1572645,10.625575 C50.1572645,9.84053579 50.2829707,9.44802208 50.5343868,9.44802208 L56.0262301,9.44802208 C56.2933598,9.44802208 56.4269226,9.84053579 56.4269226,10.625575 C56.4269226,11.4106142 56.2933598,11.8031279 56.0262301,11.8031279 L50.5343868,11.8031279 Z M66.208532,11.8031279 C65.9571158,11.8031279 65.8314097,11.4106142 65.8314097,10.625575 C65.8314097,9.84053579 65.9571158,9.44802208 66.208532,9.44802208 L71.7003753,9.44802208 C71.9675049,9.44802208 72.1010677,9.84053579 72.1010677,10.625575 C72.1010677,11.4106142 71.9675049,11.8031279 71.7003753,11.8031279 L66.208532,11.8031279 Z M50.5343868,14.9354186 C50.2829707,14.9354186 50.1572645,14.5429049 50.1572645,13.7578657 C50.1572645,12.9728265 50.2829707,12.5803128 50.5343868,12.5803128 L71.7003753,12.5803128 C71.9675049,12.5803128 72.1010677,12.9728265 72.1010677,13.7578657 C72.1010677,14.5429049 71.9675049,14.9354186 71.7003753,14.9354186 L50.5343868,14.9354186 Z M50.5343868,18.0677093 C50.2829707,18.0677093 50.1572645,17.6751956 50.1572645,16.8901564 C50.1572645,16.1051172 50.2829707,15.7126035 50.5343868,15.7126035 L56.0262301,15.7126035 C56.2933598,15.7126035 56.4269226,16.1051172 56.4269226,16.8901564 C56.4269226,17.6751956 56.2933598,18.0677093 56.0262301,18.0677093 L50.5343868,18.0677093 Z M66.208532,18.0677093 C65.9571158,18.0677093 65.8314097,17.6751956 65.8314097,16.8901564 C65.8314097,16.1051172 65.9571158,15.7126035 66.208532,15.7126035 L71.7003753,15.7126035 C71.9675049,15.7126035 72.1010677,16.1051172 72.1010677,16.8901564 C72.1010677,17.6751956 71.9675049,18.0677093 71.7003753,18.0677093 L66.208532,18.0677093 Z M50.5343868,21.2 C50.2829707,21.2 50.1572645,20.8074863 50.1572645,20.0224471 C50.1572645,19.2374079 50.2829707,18.8448942 50.5343868,18.8448942 L56.0262301,18.8448942 C56.2933598,18.8448942 56.4269226,19.2374079 56.4269226,20.0224471 C56.4269226,20.8074863 56.2933598,21.2 56.0262301,21.2 L50.5343868,21.2 Z M66.208532,21.2 C65.9571158,21.2 65.8314097,20.8074863 65.8314097,20.0224471 C65.8314097,19.2374079 65.9571158,18.8448942 66.208532,18.8448942 L71.7003753,18.8448942 C71.9675049,18.8448942 72.1010677,19.2374079 72.1010677,20.0224471 C72.1010677,20.8074863 71.9675049,21.2 71.7003753,21.2 L66.208532,21.2 Z M78.7478481,5.53854646 C78.496432,5.53854646 78.3707258,5.14603275 78.3707258,4.36099356 C78.3707258,3.57595437 78.496432,3.18344066 78.7478481,3.18344066 L84.2396914,3.18344066 C84.506821,3.18344066 84.6403838,3.57595437 84.6403838,4.36099356 C84.6403838,5.14603275 84.506821,5.53854646 84.2396914,5.53854646 L78.7478481,5.53854646 Z M91.2871642,5.53854646 C91.0357481,5.53854646 90.9100419,5.14603275 90.9100419,4.36099356 C90.9100419,3.57595437 91.0357481,3.18344066 91.2871642,3.18344066 L96.7790075,3.18344066 C97.0461372,3.18344066 97.1797,3.57595437 97.1797,4.36099356 C97.1797,5.14603275 97.0461372,5.53854646 96.7790075,5.53854646 L91.2871642,5.53854646 Z M81.8826771,2.40625575 C81.631261,2.40625575 81.5055548,2.01374204 81.5055548,1.22870285 C81.5055548,0.443663661 81.631261,0.051149954 81.8826771,0.051149954 L93.6441785,0.051149954 C93.9113081,0.051149954 94.0448709,0.443663661 94.0448709,1.22870285 C94.0448709,2.01374204 93.9113081,2.40625575 93.6441785,2.40625575 L81.8826771,2.40625575 Z M75.613019,8.67083717 C75.3616029,8.67083717 75.2358968,8.27832346 75.2358968,7.49328427 C75.2358968,6.70824508 75.3616029,6.31573137 75.613019,6.31573137 L81.1048624,6.31573137 C81.371992,6.31573137 81.5055548,6.70824508 81.5055548,7.49328427 C81.5055548,8.27832346 81.371992,8.67083717 81.1048624,8.67083717 L75.613019,8.67083717 Z M75.613019,14.9354186 C75.3616029,14.9354186 75.2358968,14.5429049 75.2358968,13.7578657 C75.2358968,12.9728265 75.3616029,12.5803128 75.613019,12.5803128 L81.1048624,12.5803128 C81.371992,12.5803128 81.5055548,12.9728265 81.5055548,13.7578657 C81.5055548,14.5429049 81.371992,14.9354186 81.1048624,14.9354186 L75.613019,14.9354186 Z M75.613019,11.8031279 C75.3616029,11.8031279 75.2358968,11.4106142 75.2358968,10.625575 C75.2358968,9.84053579 75.3616029,9.44802208 75.613019,9.44802208 L81.1048624,9.44802208 C81.371992,9.44802208 81.5055548,9.84053579 81.5055548,10.625575 C81.5055548,11.4106142 81.371992,11.8031279 81.1048624,11.8031279 L75.613019,11.8031279 Z M78.7478481,18.0677093 C78.496432,18.0677093 78.3707258,17.6751956 78.3707258,16.8901564 C78.3707258,16.1051172 78.496432,15.7126035 78.7478481,15.7126035 L84.2396914,15.7126035 C84.506821,15.7126035 84.6403838,16.1051172 84.6403838,16.8901564 C84.6403838,17.6751956 84.506821,18.0677093 84.2396914,18.0677093 L78.7478481,18.0677093 Z M91.2871642,18.0677093 C91.0357481,18.0677093 90.9100419,17.6751956 90.9100419,16.8901564 C90.9100419,16.1051172 91.0357481,15.7126035 91.2871642,15.7126035 L96.7790075,15.7126035 C97.0461372,15.7126035 97.1797,16.1051172 97.1797,16.8901564 C97.1797,17.6751956 97.0461372,18.0677093 96.7790075,18.0677093 L91.2871642,18.0677093 Z M81.8826771,21.2 C81.631261,21.2 81.5055548,20.8074863 81.5055548,20.0224471 C81.5055548,19.2374079 81.631261,18.8448942 81.8826771,18.8448942 L93.6441785,18.8448942 C93.9113081,18.8448942 94.0448709,19.2374079 94.0448709,20.0224471 C94.0448709,20.8074863 93.9113081,21.2 93.6441785,21.2 L81.8826771,21.2 Z M107.694193,5.53854646 C107.442777,5.53854646 107.317071,5.14603275 107.317071,4.36099356 C107.317071,3.57595437 107.442777,3.18344066 107.694193,3.18344066 L113.186037,3.18344066 C113.453166,3.18344066 113.586729,3.57595437 113.586729,4.36099356 C113.586729,5.14603275 113.453166,5.53854646 113.186037,5.53854646 L107.694193,5.53854646 Z M101.424535,2.40625575 C101.173119,2.40625575 101.047413,2.01374204 101.047413,1.22870285 C101.047413,0.443663661 101.173119,0.051149954 101.424535,0.051149954 L119.455695,0.051149954 C119.722825,0.051149954 119.856387,0.443663661 119.856387,1.22870285 C119.856387,2.01374204 119.722825,2.40625575 119.455695,2.40625575 L101.424535,2.40625575 Z M107.694193,8.67083717 C107.442777,8.67083717 107.317071,8.27832346 107.317071,7.49328427 C107.317071,6.70824508 107.442777,6.31573137 107.694193,6.31573137 L113.186037,6.31573137 C113.453166,6.31573137 113.586729,6.70824508 113.586729,7.49328427 C113.586729,8.27832346 113.453166,8.67083717 113.186037,8.67083717 L107.694193,8.67083717 Z M107.694193,18.0677093 C107.442777,18.0677093 107.317071,17.6751956 107.317071,16.8901564 C107.317071,16.1051172 107.442777,15.7126035 107.694193,15.7126035 L113.186037,15.7126035 C113.453166,15.7126035 113.586729,16.1051172 113.586729,16.8901564 C113.586729,17.6751956 113.453166,18.0677093 113.186037,18.0677093 L107.694193,18.0677093 Z M107.694193,21.2 C107.442777,21.2 107.317071,20.8074863 107.317071,20.0224471 C107.317071,19.2374079 107.442777,18.8448942 107.694193,18.8448942 L113.186037,18.8448942 C113.453166,18.8448942 113.586729,19.2374079 113.586729,20.0224471 C113.586729,20.8074863 113.453166,21.2 113.186037,21.2 L107.694193,21.2 Z M107.694193,11.8031279 C107.442777,11.8031279 107.317071,11.4106142 107.317071,10.625575 C107.317071,9.84053579 107.442777,9.44802208 107.694193,9.44802208 L113.186037,9.44802208 C113.453166,9.44802208 113.586729,9.84053579 113.586729,10.625575 C113.586729,11.4106142 113.453166,11.8031279 113.186037,11.8031279 L107.694193,11.8031279 Z M107.694193,14.9354186 C107.442777,14.9354186 107.317071,14.5429049 107.317071,13.7578657 C107.317071,12.9728265 107.442777,12.5803128 107.694193,12.5803128 L113.186037,12.5803128 C113.453166,12.5803128 113.586729,12.9728265 113.586729,13.7578657 C113.586729,14.5429049 113.453166,14.9354186 113.186037,14.9354186 L107.694193,14.9354186 Z M126.503168,5.53854646 C126.251752,5.53854646 126.126045,5.14603275 126.126045,4.36099356 C126.126045,3.57595437 126.251752,3.18344066 126.503168,3.18344066 L131.995011,3.18344066 C132.262141,3.18344066 132.395703,3.57595437 132.395703,4.36099356 C132.395703,5.14603275 132.262141,5.53854646 131.995011,5.53854646 L126.503168,5.53854646 Z M135.907655,5.53854646 C135.656239,5.53854646 135.530532,5.14603275 135.530532,4.36099356 C135.530532,3.57595437 135.656239,3.18344066 135.907655,3.18344066 L141.399498,3.18344066 C141.666628,3.18344066 141.800191,3.57595437 141.800191,4.36099356 C141.800191,5.14603275 141.666628,5.53854646 141.399498,5.53854646 L135.907655,5.53854646 Z M129.637997,2.40625575 C129.386581,2.40625575 129.260874,2.01374204 129.260874,1.22870285 C129.260874,0.443663661 129.386581,0.051149954 129.637997,0.051149954 L138.264669,0.051149954 C138.531799,0.051149954 138.665362,0.443663661 138.665362,1.22870285 C138.665362,2.01374204 138.531799,2.40625575 138.264669,2.40625575 L129.637997,2.40625575 Z M123.368339,8.67083717 C123.116923,8.67083717 122.991216,8.27832346 122.991216,7.49328427 C122.991216,6.70824508 123.116923,6.31573137 123.368339,6.31573137 L128.860182,6.31573137 C129.127312,6.31573137 129.260874,6.70824508 129.260874,7.49328427 C129.260874,8.27832346 129.127312,8.67083717 128.860182,8.67083717 L123.368339,8.67083717 Z M139.042484,8.67083717 C138.791068,8.67083717 138.665362,8.27832346 138.665362,7.49328427 C138.665362,6.70824508 138.791068,6.31573137 139.042484,6.31573137 L144.534327,6.31573137 C144.801457,6.31573137 144.93502,6.70824508 144.93502,7.49328427 C144.93502,8.27832346 144.801457,8.67083717 144.534327,8.67083717 L139.042484,8.67083717 Z M123.368339,11.8031279 C123.116923,11.8031279 122.991216,11.4106142 122.991216,10.625575 C122.991216,9.84053579 123.116923,9.44802208 123.368339,9.44802208 L128.860182,9.44802208 C129.127312,9.44802208 129.260874,9.84053579 129.260874,10.625575 C129.260874,11.4106142 129.127312,11.8031279 128.860182,11.8031279 L123.368339,11.8031279 Z M139.042484,11.8031279 C138.791068,11.8031279 138.665362,11.4106142 138.665362,10.625575 C138.665362,9.84053579 138.791068,9.44802208 139.042484,9.44802208 L144.534327,9.44802208 C144.801457,9.44802208 144.93502,9.84053579 144.93502,10.625575 C144.93502,11.4106142 144.801457,11.8031279 144.534327,11.8031279 L139.042484,11.8031279 Z M123.368339,14.9354186 C123.116923,14.9354186 122.991216,14.5429049 122.991216,13.7578657 C122.991216,12.9728265 123.116923,12.5803128 123.368339,12.5803128 L144.534327,12.5803128 C144.801457,12.5803128 144.93502,12.9728265 144.93502,13.7578657 C144.93502,14.5429049 144.801457,14.9354186 144.534327,14.9354186 L123.368339,14.9354186 Z M123.368339,18.0677093 C123.116923,18.0677093 122.991216,17.6751956 122.991216,16.8901564 C122.991216,16.1051172 123.116923,15.7126035 123.368339,15.7126035 L128.860182,15.7126035 C129.127312,15.7126035 129.260874,16.1051172 129.260874,16.8901564 C129.260874,17.6751956 129.127312,18.0677093 128.860182,18.0677093 L123.368339,18.0677093 Z M139.042484,18.0677093 C138.791068,18.0677093 138.665362,17.6751956 138.665362,16.8901564 C138.665362,16.1051172 138.791068,15.7126035 139.042484,15.7126035 L144.534327,15.7126035 C144.801457,15.7126035 144.93502,16.1051172 144.93502,16.8901564 C144.93502,17.6751956 144.801457,18.0677093 144.534327,18.0677093 L139.042484,18.0677093 Z M123.368339,21.2 C123.116923,21.2 122.991216,20.8074863 122.991216,20.0224471 C122.991216,19.2374079 123.116923,18.8448942 123.368339,18.8448942 L128.860182,18.8448942 C129.127312,18.8448942 129.260874,19.2374079 129.260874,20.0224471 C129.260874,20.8074863 129.127312,21.2 128.860182,21.2 L123.368339,21.2 Z M139.042484,21.2 C138.791068,21.2 138.665362,20.8074863 138.665362,20.0224471 C138.665362,19.2374079 138.791068,18.8448942 139.042484,18.8448942 L144.534327,18.8448942 C144.801457,18.8448942 144.93502,19.2374079 144.93502,20.0224471 C144.93502,20.8074863 144.801457,21.2 144.534327,21.2 L139.042484,21.2 Z M154.40867,5.53854646 C154.157254,5.53854646 154.031548,5.14603275 154.031548,4.36099356 C154.031548,3.57595437 154.157254,3.18344066 154.40867,3.18344066 L159.900514,3.18344066 C160.167643,3.18344066 160.301206,3.57595437 160.301206,4.36099356 C160.301206,5.14603275 160.167643,5.53854646 159.900514,5.53854646 L154.40867,5.53854646 Z M148.139012,2.40625575 C147.887596,2.40625575 147.76189,2.01374204 147.76189,1.22870285 C147.76189,0.443663661 147.887596,0.051149954 148.139012,0.051149954 L166.170172,0.051149954 C166.437301,0.051149954 166.570864,0.443663661 166.570864,1.22870285 C166.570864,2.01374204 166.437301,2.40625575 166.170172,2.40625575 L148.139012,2.40625575 Z M154.40867,8.67083717 C154.157254,8.67083717 154.031548,8.27832346 154.031548,7.49328427 C154.031548,6.70824508 154.157254,6.31573137 154.40867,6.31573137 L159.900514,6.31573137 C160.167643,6.31573137 160.301206,6.70824508 160.301206,7.49328427 C160.301206,8.27832346 160.167643,8.67083717 159.900514,8.67083717 L154.40867,8.67083717 Z M154.40867,18.0677093 C154.157254,18.0677093 154.031548,17.6751956 154.031548,16.8901564 C154.031548,16.1051172 154.157254,15.7126035 154.40867,15.7126035 L159.900514,15.7126035 C160.167643,15.7126035 160.301206,16.1051172 160.301206,16.8901564 C160.301206,17.6751956 160.167643,18.0677093 159.900514,18.0677093 L154.40867,18.0677093 Z M154.40867,21.2 C154.157254,21.2 154.031548,20.8074863 154.031548,20.0224471 C154.031548,19.2374079 154.157254,18.8448942 154.40867,18.8448942 L159.900514,18.8448942 C160.167643,18.8448942 160.301206,19.2374079 160.301206,20.0224471 C160.301206,20.8074863 160.167643,21.2 159.900514,21.2 L154.40867,21.2 Z M154.40867,11.8031279 C154.157254,11.8031279 154.031548,11.4106142 154.031548,10.625575 C154.031548,9.84053579 154.157254,9.44802208 154.40867,9.44802208 L159.900514,9.44802208 C160.167643,9.44802208 160.301206,9.84053579 160.301206,10.625575 C160.301206,11.4106142 160.167643,11.8031279 159.900514,11.8031279 L154.40867,11.8031279 Z M154.40867,14.9354186 C154.157254,14.9354186 154.031548,14.5429049 154.031548,13.7578657 C154.031548,12.9728265 154.157254,12.5803128 154.40867,12.5803128 L159.900514,12.5803128 C160.167643,12.5803128 160.301206,12.9728265 160.301206,13.7578657 C160.301206,14.5429049 160.167643,14.9354186 159.900514,14.9354186 L154.40867,14.9354186 Z M170.082815,5.53854646 C169.831399,5.53854646 169.705693,5.14603275 169.705693,4.36099356 C169.705693,3.57595437 169.831399,3.18344066 170.082815,3.18344066 L175.574659,3.18344066 C175.841788,3.18344066 175.975351,3.57595437 175.975351,4.36099356 C175.975351,5.14603275 175.841788,5.53854646 175.574659,5.53854646 L170.082815,5.53854646 Z M170.082815,8.67083717 C169.831399,8.67083717 169.705693,8.27832346 169.705693,7.49328427 C169.705693,6.70824508 169.831399,6.31573137 170.082815,6.31573137 L175.574659,6.31573137 C175.841788,6.31573137 175.975351,6.70824508 175.975351,7.49328427 C175.975351,8.27832346 175.841788,8.67083717 175.574659,8.67083717 L170.082815,8.67083717 Z M170.082815,14.9354186 C169.831399,14.9354186 169.705693,14.5429049 169.705693,13.7578657 C169.705693,12.9728265 169.831399,12.5803128 170.082815,12.5803128 L175.574659,12.5803128 C175.841788,12.5803128 175.975351,12.9728265 175.975351,13.7578657 C175.975351,14.5429049 175.841788,14.9354186 175.574659,14.9354186 L170.082815,14.9354186 Z M170.082815,11.8031279 C169.831399,11.8031279 169.705693,11.4106142 169.705693,10.625575 C169.705693,9.84053579 169.831399,9.44802208 170.082815,9.44802208 L191.248804,9.44802208 C191.515934,9.44802208 191.649496,9.84053579 191.649496,10.625575 C191.649496,11.4106142 191.515934,11.8031279 191.248804,11.8031279 L170.082815,11.8031279 Z M170.082815,18.0677093 C169.831399,18.0677093 169.705693,17.6751956 169.705693,16.8901564 C169.705693,16.1051172 169.831399,15.7126035 170.082815,15.7126035 L175.574659,15.7126035 C175.841788,15.7126035 175.975351,16.1051172 175.975351,16.8901564 C175.975351,17.6751956 175.841788,18.0677093 175.574659,18.0677093 L170.082815,18.0677093 Z M170.082815,2.40625575 C169.831399,2.40625575 169.705693,2.01374204 169.705693,1.22870285 C169.705693,0.443663661 169.831399,0.051149954 170.082815,0.051149954 L175.574659,0.051149954 C175.841788,0.051149954 175.975351,0.443663661 175.975351,1.22870285 C175.975351,2.01374204 175.841788,2.40625575 175.574659,2.40625575 L170.082815,2.40625575 Z M170.082815,21.2 C169.831399,21.2 169.705693,20.8074863 169.705693,20.0224471 C169.705693,19.2374079 169.831399,18.8448942 170.082815,18.8448942 L175.574659,18.8448942 C175.841788,18.8448942 175.975351,19.2374079 175.975351,20.0224471 C175.975351,20.8074863 175.841788,21.2 175.574659,21.2 L170.082815,21.2 Z M185.756961,5.53854646 C185.505545,5.53854646 185.379838,5.14603275 185.379838,4.36099356 C185.379838,3.57595437 185.505545,3.18344066 185.756961,3.18344066 L191.248804,3.18344066 C191.515934,3.18344066 191.649496,3.57595437 191.649496,4.36099356 C191.649496,5.14603275 191.515934,5.53854646 191.248804,5.53854646 L185.756961,5.53854646 Z M185.756961,8.67083717 C185.505545,8.67083717 185.379838,8.27832346 185.379838,7.49328427 C185.379838,6.70824508 185.505545,6.31573137 185.756961,6.31573137 L191.248804,6.31573137 C191.515934,6.31573137 191.649496,6.70824508 191.649496,7.49328427 C191.649496,8.27832346 191.515934,8.67083717 191.248804,8.67083717 L185.756961,8.67083717 Z M185.756961,14.9354186 C185.505545,14.9354186 185.379838,14.5429049 185.379838,13.7578657 C185.379838,12.9728265 185.505545,12.5803128 185.756961,12.5803128 L191.248804,12.5803128 C191.515934,12.5803128 191.649496,12.9728265 191.649496,13.7578657 C191.649496,14.5429049 191.515934,14.9354186 191.248804,14.9354186 L185.756961,14.9354186 Z M185.756961,18.0677093 C185.505545,18.0677093 185.379838,17.6751956 185.379838,16.8901564 C185.379838,16.1051172 185.505545,15.7126035 185.756961,15.7126035 L191.248804,15.7126035 C191.515934,15.7126035 191.649496,16.1051172 191.649496,16.8901564 C191.649496,17.6751956 191.515934,18.0677093 191.248804,18.0677093 L185.756961,18.0677093 Z M185.756961,2.40625575 C185.505545,2.40625575 185.379838,2.01374204 185.379838,1.22870285 C185.379838,0.443663661 185.505545,0.051149954 185.756961,0.051149954 L191.248804,0.051149954 C191.515934,0.051149954 191.649496,0.443663661 191.649496,1.22870285 C191.649496,2.01374204 191.515934,2.40625575 191.248804,2.40625575 L185.756961,2.40625575 Z M185.756961,21.2 C185.505545,21.2 185.379838,20.8074863 185.379838,20.0224471 C185.379838,19.2374079 185.505545,18.8448942 185.756961,18.8448942 L191.248804,18.8448942 C191.515934,18.8448942 191.649496,19.2374079 191.649496,20.0224471 C191.649496,20.8074863 191.515934,21.2 191.248804,21.2 L185.756961,21.2 Z M195.161448,5.53854646 C194.910032,5.53854646 194.784325,5.14603275 194.784325,4.36099356 C194.784325,3.57595437 194.910032,3.18344066 195.161448,3.18344066 L200.653291,3.18344066 C200.920421,3.18344066 201.053984,3.57595437 201.053984,4.36099356 C201.053984,5.14603275 200.920421,5.53854646 200.653291,5.53854646 L195.161448,5.53854646 Z M210.835593,5.53854646 C210.584177,5.53854646 210.458471,5.14603275 210.458471,4.36099356 C210.458471,3.57595437 210.584177,3.18344066 210.835593,3.18344066 L216.327436,3.18344066 C216.594566,3.18344066 216.728129,3.57595437 216.728129,4.36099356 C216.728129,5.14603275 216.594566,5.53854646 216.327436,5.53854646 L210.835593,5.53854646 Z M198.296277,2.40625575 C198.044861,2.40625575 197.919154,2.01374204 197.919154,1.22870285 C197.919154,0.443663661 198.044861,0.051149954 198.296277,0.051149954 L213.192607,0.051149954 C213.459737,0.051149954 213.5933,0.443663661 213.5933,1.22870285 C213.5933,2.01374204 213.459737,2.40625575 213.192607,2.40625575 L198.296277,2.40625575 Z M195.161448,8.67083717 C194.910032,8.67083717 194.784325,8.27832346 194.784325,7.49328427 C194.784325,6.70824508 194.910032,6.31573137 195.161448,6.31573137 L200.653291,6.31573137 C200.920421,6.31573137 201.053984,6.70824508 201.053984,7.49328427 C201.053984,8.27832346 200.920421,8.67083717 200.653291,8.67083717 L195.161448,8.67083717 Z M210.835593,8.67083717 C210.584177,8.67083717 210.458471,8.27832346 210.458471,7.49328427 C210.458471,6.70824508 210.584177,6.31573137 210.835593,6.31573137 L216.327436,6.31573137 C216.594566,6.31573137 216.728129,6.70824508 216.728129,7.49328427 C216.728129,8.27832346 216.594566,8.67083717 216.327436,8.67083717 L210.835593,8.67083717 Z M195.161448,14.9354186 C194.910032,14.9354186 194.784325,14.5429049 194.784325,13.7578657 C194.784325,12.9728265 194.910032,12.5803128 195.161448,12.5803128 L200.653291,12.5803128 C200.920421,12.5803128 201.053984,12.9728265 201.053984,13.7578657 C201.053984,14.5429049 200.920421,14.9354186 200.653291,14.9354186 L195.161448,14.9354186 Z M210.835593,14.9354186 C210.584177,14.9354186 210.458471,14.5429049 210.458471,13.7578657 C210.458471,12.9728265 210.584177,12.5803128 210.835593,12.5803128 L216.327436,12.5803128 C216.594566,12.5803128 216.728129,12.9728265 216.728129,13.7578657 C216.728129,14.5429049 216.594566,14.9354186 216.327436,14.9354186 L210.835593,14.9354186 Z M195.161448,11.8031279 C194.910032,11.8031279 194.784325,11.4106142 194.784325,10.625575 C194.784325,9.84053579 194.910032,9.44802208 195.161448,9.44802208 L200.653291,9.44802208 C200.920421,9.44802208 201.053984,9.84053579 201.053984,10.625575 C201.053984,11.4106142 200.920421,11.8031279 200.653291,11.8031279 L195.161448,11.8031279 Z M195.161448,18.0677093 C194.910032,18.0677093 194.784325,17.6751956 194.784325,16.8901564 C194.784325,16.1051172 194.910032,15.7126035 195.161448,15.7126035 L200.653291,15.7126035 C200.920421,15.7126035 201.053984,16.1051172 201.053984,16.8901564 C201.053984,17.6751956 200.920421,18.0677093 200.653291,18.0677093 L195.161448,18.0677093 Z M210.835593,18.0677093 C210.584177,18.0677093 210.458471,17.6751956 210.458471,16.8901564 C210.458471,16.1051172 210.584177,15.7126035 210.835593,15.7126035 L216.327436,15.7126035 C216.594566,15.7126035 216.728129,16.1051172 216.728129,16.8901564 C216.728129,17.6751956 216.594566,18.0677093 216.327436,18.0677093 L210.835593,18.0677093 Z M198.296277,21.2 C198.044861,21.2 197.919154,20.8074863 197.919154,20.0224471 C197.919154,19.2374079 198.044861,18.8448942 198.296277,18.8448942 L213.192607,18.8448942 C213.459737,18.8448942 213.5933,19.2374079 213.5933,20.0224471 C213.5933,20.8074863 213.459737,21.2 213.192607,21.2 L198.296277,21.2 Z M210.835593,11.8031279 C210.584177,11.8031279 210.458471,11.4106142 210.458471,10.625575 C210.458471,9.84053579 210.584177,9.44802208 210.835593,9.44802208 L216.327436,9.44802208 C216.594566,9.44802208 216.728129,9.84053579 216.728129,10.625575 C216.728129,11.4106142 216.594566,11.8031279 216.327436,11.8031279 L210.835593,11.8031279 Z M220.24008,5.53854646 C219.988664,5.53854646 219.862958,5.14603275 219.862958,4.36099356 C219.862958,3.57595437 219.988664,3.18344066 220.24008,3.18344066 L228.866752,3.18344066 C229.133882,3.18344066 229.267445,3.57595437 229.267445,4.36099356 C229.267445,5.14603275 229.133882,5.53854646 228.866752,5.53854646 L220.24008,5.53854646 Z M220.24008,8.67083717 C219.988664,8.67083717 219.862958,8.27832346 219.862958,7.49328427 C219.862958,6.70824508 219.988664,6.31573137 220.24008,6.31573137 L232.001581,6.31573137 C232.268711,6.31573137 232.402274,6.70824508 232.402274,7.49328427 C232.402274,8.27832346 232.268711,8.67083717 232.001581,8.67083717 L220.24008,8.67083717 Z M220.24008,14.9354186 C219.988664,14.9354186 219.862958,14.5429049 219.862958,13.7578657 C219.862958,12.9728265 219.988664,12.5803128 220.24008,12.5803128 L225.731923,12.5803128 C225.999053,12.5803128 226.132616,12.9728265 226.132616,13.7578657 C226.132616,14.5429049 225.999053,14.9354186 225.731923,14.9354186 L220.24008,14.9354186 Z M220.24008,18.0677093 C219.988664,18.0677093 219.862958,17.6751956 219.862958,16.8901564 C219.862958,16.1051172 219.988664,15.7126035 220.24008,15.7126035 L225.731923,15.7126035 C225.999053,15.7126035 226.132616,16.1051172 226.132616,16.8901564 C226.132616,17.6751956 225.999053,18.0677093 225.731923,18.0677093 L220.24008,18.0677093 Z M220.24008,2.40625575 C219.988664,2.40625575 219.862958,2.01374204 219.862958,1.22870285 C219.862958,0.443663661 219.988664,0.051149954 220.24008,0.051149954 L225.731923,0.051149954 C225.999053,0.051149954 226.132616,0.443663661 226.132616,1.22870285 C226.132616,2.01374204 225.999053,2.40625575 225.731923,2.40625575 L220.24008,2.40625575 Z M220.24008,21.2 C219.988664,21.2 219.862958,20.8074863 219.862958,20.0224471 C219.862958,19.2374079 219.988664,18.8448942 220.24008,18.8448942 L225.731923,18.8448942 C225.999053,18.8448942 226.132616,19.2374079 226.132616,20.0224471 C226.132616,20.8074863 225.999053,21.2 225.731923,21.2 L220.24008,21.2 Z M235.914225,5.53854646 C235.662809,5.53854646 235.537103,5.14603275 235.537103,4.36099356 C235.537103,3.57595437 235.662809,3.18344066 235.914225,3.18344066 L241.406068,3.18344066 C241.673198,3.18344066 241.806761,3.57595437 241.806761,4.36099356 C241.806761,5.14603275 241.673198,5.53854646 241.406068,5.53854646 L235.914225,5.53854646 Z M229.644567,14.9354186 C229.393151,14.9354186 229.267445,14.5429049 229.267445,13.7578657 C229.267445,12.9728265 229.393151,12.5803128 229.644567,12.5803128 L241.406068,12.5803128 C241.673198,12.5803128 241.806761,12.9728265 241.806761,13.7578657 C241.806761,14.5429049 241.673198,14.9354186 241.406068,14.9354186 L229.644567,14.9354186 Z M232.779396,18.0677093 C232.52798,18.0677093 232.402274,17.6751956 232.402274,16.8901564 C232.402274,16.1051172 232.52798,15.7126035 232.779396,15.7126035 L241.406068,15.7126035 C241.673198,15.7126035 241.806761,16.1051172 241.806761,16.8901564 C241.806761,17.6751956 241.673198,18.0677093 241.406068,18.0677093 L232.779396,18.0677093 Z M235.914225,2.40625575 C235.662809,2.40625575 235.537103,2.01374204 235.537103,1.22870285 C235.537103,0.443663661 235.662809,0.051149954 235.914225,0.051149954 L241.406068,0.051149954 C241.673198,0.051149954 241.806761,0.443663661 241.806761,1.22870285 C241.806761,2.01374204 241.673198,2.40625575 241.406068,2.40625575 L235.914225,2.40625575 Z M235.914225,21.2 C235.662809,21.2 235.537103,20.8074863 235.537103,20.0224471 C235.537103,19.2374079 235.662809,18.8448942 235.914225,18.8448942 L241.406068,18.8448942 C241.673198,18.8448942 241.806761,19.2374079 241.806761,20.0224471 C241.806761,20.8074863 241.673198,21.2 241.406068,21.2 L235.914225,21.2 Z M220.24008,11.8031279 C219.988664,11.8031279 219.862958,11.4106142 219.862958,10.625575 C219.862958,9.84053579 219.988664,9.44802208 220.24008,9.44802208 L241.406068,9.44802208 C241.673198,9.44802208 241.806761,9.84053579 241.806761,10.625575 C241.806761,11.4106142 241.673198,11.8031279 241.406068,11.8031279 L220.24008,11.8031279 Z M235.914225,8.67083717 C235.662809,8.67083717 235.537103,8.27832346 235.537103,7.49328427 C235.537103,6.70824508 235.662809,6.31573137 235.914225,6.31573137 L241.406068,6.31573137 C241.673198,6.31573137 241.806761,6.70824508 241.806761,7.49328427 C241.806761,8.27832346 241.673198,8.67083717 241.406068,8.67083717 L235.914225,8.67083717 Z" id="REACTATHON-BACK" fill="#FFFA42"></path>
                <path d="M2.40194489,1.67396504 L21.2109191,1.67396504 L21.2109191,4.80625575 L24.3457481,4.80625575 L24.3457481,14.2031279 L18.0760901,14.2031279 L18.0760901,17.3354186 L21.2109191,17.3354186 L21.2109191,20.4677093 L24.3457481,20.4677093 L24.3457481,23.6 L14.941261,23.6 L14.941261,20.4677093 L11.806432,20.4677093 L11.806432,17.3354186 L8.67160296,17.3354186 L8.67160296,23.6 L2.40194489,23.6 L2.40194489,1.67396504 Z M8.67160296,4.80625575 L8.67160296,14.2031279 L14.941261,14.2031279 L14.941261,11.0708372 L18.0760901,11.0708372 L18.0760901,4.80625575 L8.67160296,4.80625575 Z M27.4805771,1.67396504 L49.4243804,1.67396504 L49.4243804,4.80625575 L33.7502352,4.80625575 L33.7502352,11.0708372 L46.2895513,11.0708372 L46.2895513,14.2031279 L33.7502352,14.2031279 L33.7502352,20.4677093 L49.4243804,20.4677093 L49.4243804,23.6 L27.4805771,23.6 L27.4805771,1.67396504 Z M58.8288675,1.67396504 L68.2333546,1.67396504 L68.2333546,4.80625575 L71.3681836,4.80625575 L71.3681836,7.93854646 L74.5030126,7.93854646 L74.5030126,23.6 L68.2333546,23.6 L68.2333546,17.3354186 L58.8288675,17.3354186 L58.8288675,23.6 L52.5592094,23.6 L52.5592094,7.93854646 L55.6940384,7.93854646 L55.6940384,4.80625575 L58.8288675,4.80625575 L58.8288675,1.67396504 Z M61.9636965,4.80625575 L61.9636965,7.93854646 L58.8288675,7.93854646 L58.8288675,14.2031279 L68.2333546,14.2031279 L68.2333546,7.93854646 L65.0985255,7.93854646 L65.0985255,4.80625575 L61.9636965,4.80625575 Z M83.9074997,1.67396504 L96.4468158,1.67396504 L96.4468158,4.80625575 L99.5816449,4.80625575 L99.5816449,7.93854646 L93.3119868,7.93854646 L93.3119868,4.80625575 L87.0423287,4.80625575 L87.0423287,7.93854646 L83.9074997,7.93854646 L83.9074997,17.3354186 L87.0423287,17.3354186 L87.0423287,20.4677093 L93.3119868,20.4677093 L93.3119868,17.3354186 L99.5816449,17.3354186 L99.5816449,20.4677093 L96.4468158,20.4677093 L96.4468158,23.6 L83.9074997,23.6 L83.9074997,20.4677093 L80.7726707,20.4677093 L80.7726707,17.3354186 L77.6378417,17.3354186 L77.6378417,7.93854646 L80.7726707,7.93854646 L80.7726707,4.80625575 L83.9074997,4.80625575 L83.9074997,1.67396504 Z M103.449358,1.67396504 L122.258332,1.67396504 L122.258332,4.80625575 L115.988674,4.80625575 L115.988674,23.6 L109.719016,23.6 L109.719016,4.80625575 L103.449358,4.80625575 L103.449358,1.67396504 Z M131.662819,1.67396504 L141.067306,1.67396504 L141.067306,4.80625575 L144.202135,4.80625575 L144.202135,7.93854646 L147.336964,7.93854646 L147.336964,23.6 L141.067306,23.6 L141.067306,17.3354186 L131.662819,17.3354186 L131.662819,23.6 L125.393161,23.6 L125.393161,7.93854646 L128.52799,7.93854646 L128.52799,4.80625575 L131.662819,4.80625575 L131.662819,1.67396504 Z M134.797648,4.80625575 L134.797648,7.93854646 L131.662819,7.93854646 L131.662819,14.2031279 L141.067306,14.2031279 L141.067306,7.93854646 L137.932477,7.93854646 L137.932477,4.80625575 L134.797648,4.80625575 Z M150.163835,1.67396504 L168.972809,1.67396504 L168.972809,4.80625575 L162.703151,4.80625575 L162.703151,23.6 L156.433493,23.6 L156.433493,4.80625575 L150.163835,4.80625575 L150.163835,1.67396504 Z M172.107638,1.67396504 L178.377296,1.67396504 L178.377296,11.0708372 L187.781783,11.0708372 L187.781783,1.67396504 L194.051441,1.67396504 L194.051441,23.6 L187.781783,23.6 L187.781783,14.2031279 L178.377296,14.2031279 L178.377296,23.6 L172.107638,23.6 L172.107638,1.67396504 Z M200.321099,1.67396504 L215.995245,1.67396504 L215.995245,4.80625575 L219.130074,4.80625575 L219.130074,20.4677093 L215.995245,20.4677093 L215.995245,23.6 L200.321099,23.6 L200.321099,20.4677093 L197.18627,20.4677093 L197.18627,4.80625575 L200.321099,4.80625575 L200.321099,1.67396504 Z M203.455928,4.80625575 L203.455928,20.4677093 L212.860415,20.4677093 L212.860415,4.80625575 L203.455928,4.80625575 Z M222.264903,1.67396504 L228.534561,1.67396504 L228.534561,4.80625575 L231.66939,4.80625575 L231.66939,7.93854646 L234.804219,7.93854646 L234.804219,11.0708372 L237.939048,11.0708372 L237.939048,1.67396504 L244.208706,1.67396504 L244.208706,23.6 L237.939048,23.6 L237.939048,20.4677093 L234.804219,20.4677093 L234.804219,17.3354186 L231.66939,17.3354186 L231.66939,14.2031279 L228.534561,14.2031279 L228.534561,23.6 L222.264903,23.6 L222.264903,1.67396504 Z" id="REACTATHON-MIDDLE" fill="#FF6400"></path>
                <path d="M26.747693,13.4708372 C26.747693,14.3500811 26.3941444,15.2136112 25.6870366,16.0614535 C25.577042,16.1870598 24.9327979,16.822932 23.7542848,17.9690892 C23.047177,18.6599237 22.6936284,19.2486943 22.6936284,19.7354186 C22.6936284,20.1750405 22.8507611,20.5440034 23.1650313,20.8423183 C24.2964038,21.9413732 24.9563612,22.5850957 25.1449233,22.7735051 C26.2134418,23.8725599 26.747693,24.6889884 26.747693,25.2228151 C26.747693,25.4897284 26.5434205,25.6938355 26.1348693,25.8351426 C25.8363127,25.9450481 25.5220472,26 25.1920636,26 L22.0572345,26 L12.6527474,19.7354186 C11.5842289,19.7354186 11.0499777,20.5047454 11.0499777,22.0434223 C11.0499777,22.2318317 11.0578343,22.5065913 11.0735479,22.8677093 C11.0892614,23.2288273 11.097118,23.5035869 11.097118,23.6919963 C11.097118,25.2306731 10.5707234,26 9.51791841,26 L6.38308938,26 C5.94311117,26 5.56992097,25.8469197 5.26350758,25.5407544 C4.95709419,25.2345891 4.80388979,24.8617011 4.80388979,24.4220791 L4.80388979,5.62833487 C4.80388979,5.18871292 4.95709419,4.81975003 5.26350758,4.52143514 C5.56992097,4.22312025 5.94311117,4.07396504 6.38308938,4.07396504 L22.0572345,4.07396504 C23.15718,4.07396504 24.2138976,4.58030772 25.2274188,5.59300828 C26.24094,6.60570884 26.747693,7.66157071 26.747693,8.76062557 L26.747693,13.4708372 Z M20.4780349,11.8929163 L20.4780349,8.76062557 C20.4780349,8.33670441 20.3248305,7.97166666 20.0184172,7.66550138 C19.7120038,7.3593361 19.3466702,7.20625575 18.9224055,7.20625575 L12.6527474,7.20625575 C12.2127692,7.20625575 11.839579,7.35541096 11.5331656,7.65372585 C11.2267523,7.95204074 11.0735479,8.32100363 11.0735479,8.76062557 L11.0735479,15.025207 C11.0735479,15.4648289 11.2267523,15.837717 11.5331656,16.1438822 C11.839579,16.4500475 12.2127692,16.6031279 12.6527474,16.6031279 L15.7875765,16.6031279 C16.887522,16.6031279 17.9442395,16.0928601 18.9577607,15.0723091 C19.9712819,14.0517582 20.4780349,12.9919711 20.4780349,11.8929163 Z M29.882522,5.65188592 C29.882522,5.21226398 30.0357264,4.83937596 30.3421398,4.53321067 C30.6485532,4.22704539 31.0217434,4.07396504 31.4617216,4.07396504 L50.2706958,4.07396504 C50.710674,4.07396504 51.0799359,4.22704539 51.3784925,4.53321067 C51.6770492,4.83937596 51.8263253,5.21226398 51.8263253,5.65188592 C51.8263253,6.07580709 51.6731209,6.44084484 51.3667075,6.74701012 C51.0602941,7.0531754 50.6949605,7.20625575 50.2706958,7.20625575 L37.7313797,7.20625575 C37.2914015,7.20625575 36.9182113,7.3593361 36.6117979,7.66550138 C36.3053845,7.97166666 36.1521801,8.34455469 36.1521801,8.78417663 L36.1521801,11.8929163 C36.1521801,12.3325382 36.3053845,12.7054263 36.6117979,13.0115915 C36.9182113,13.3177568 37.2914015,13.4708372 37.7313797,13.4708372 L47.1358668,13.4708372 C47.5601315,13.4708372 47.925465,13.6239175 48.2318784,13.9300828 C48.5382918,14.2362481 48.6914962,14.6012858 48.6914962,15.025207 C48.6914962,15.4648289 48.5422201,15.837717 48.2436635,16.1438822 C47.9451069,16.4500475 47.575845,16.6031279 47.1358668,16.6031279 L37.7313797,16.6031279 C37.2914015,16.6031279 36.9182113,16.7562082 36.6117979,17.0623735 C36.3053845,17.3685388 36.1521801,17.7414268 36.1521801,18.1810488 L36.1521801,21.2897884 C36.1521801,21.7294104 36.3053845,22.1022984 36.6117979,22.4084637 C36.9182113,22.7146289 37.2914015,22.8677093 37.7313797,22.8677093 L50.2706958,22.8677093 C50.6949605,22.8677093 51.0602941,23.0207896 51.3667075,23.3269549 C51.6731209,23.6331202 51.8263253,23.998158 51.8263253,24.4220791 C51.8263253,24.8617011 51.6770492,25.2345891 51.3784925,25.5407544 C51.0799359,25.8469197 50.710674,26 50.2706958,26 L31.4617216,26 C31.0217434,26 30.6485532,25.8469197 30.3421398,25.5407544 C30.0357264,25.2345891 29.882522,24.8617011 29.882522,24.4220791 L29.882522,5.65188592 Z M69.07967,4.07396504 C70.1167615,4.07396504 71.0045613,4.44292793 71.7430962,5.18086477 L75.7971608,9.23164673 C76.5356956,9.96958357 76.9049575,10.8566646 76.9049575,11.8929163 L76.9049575,24.4220791 C76.9049575,24.8617011 76.7556814,25.2345891 76.4571248,25.5407544 C76.1585682,25.8469197 75.7893063,26 75.3493281,26 L72.214499,26 C71.1459805,26 70.6117293,25.2306731 70.6117293,23.6919963 C70.6117293,23.5035869 70.6195859,23.2288273 70.6352995,22.8677093 C70.651013,22.5065913 70.6588696,22.2318317 70.6588696,22.0434223 C70.6588696,20.5047454 70.132475,19.7354186 69.07967,19.7354186 L62.8100119,19.7354186 C61.7414934,19.7354186 61.2072422,20.5047454 61.2072422,22.0434223 C61.2072422,22.2318317 61.2150988,22.5065913 61.2308124,22.8677093 C61.2465259,23.2288273 61.2543825,23.5035869 61.2543825,23.6919963 C61.2543825,25.2306731 60.7279879,26 59.6751829,26 L56.5403539,26 C56.1003757,26 55.7271855,25.8469197 55.4207721,25.5407544 C55.1143587,25.2345891 54.9611543,24.8617011 54.9611543,24.4220791 L54.9611543,11.8929163 C54.9611543,10.8566646 55.3304162,9.96958357 56.068951,9.23164673 L60.1230156,5.18086477 C60.8615505,4.44292793 61.757207,4.07396504 62.8100119,4.07396504 L69.07967,4.07396504 Z M70.6352995,15.025207 L70.6352995,11.8929163 C70.6352995,10.7938614 70.1285464,9.73799954 69.1150252,8.72529899 C68.101504,7.71259843 67.0447865,7.20625575 65.944841,7.20625575 C64.8448955,7.20625575 63.7842496,7.71259843 62.7628717,8.72529899 C61.7414937,9.73799954 61.2308124,10.7938614 61.2308124,11.8929163 L61.2308124,15.025207 C61.2308124,15.4648289 61.3840168,15.837717 61.6904301,16.1438822 C61.9968435,16.4500475 62.3700337,16.6031279 62.8100119,16.6031279 L69.07967,16.6031279 C69.5196482,16.6031279 69.8889101,16.4500475 70.1874667,16.1438822 C70.4860234,15.837717 70.6352995,15.4648289 70.6352995,15.025207 Z M87.8886442,4.07396504 L97.2931313,4.07396504 C98.3930768,4.07396504 99.4497943,4.58030772 100.463316,5.59300828 C101.476837,6.60570884 101.98359,7.66157071 101.98359,8.76062557 C101.98359,9.20024752 101.834314,9.57313554 101.535757,9.87930083 C101.2372,10.1854661 100.867939,10.3385465 100.42796,10.3385465 L97.2931313,10.3385465 C96.633164,10.3385465 96.1853357,10.0716371 95.9496331,9.53781049 C95.7924981,9.01968462 95.6353653,8.5094168 95.4782303,8.00699172 C95.2425277,7.47316507 94.8025561,7.20625575 94.1583023,7.20625575 L91.0234732,7.20625575 C89.9235277,7.20625575 88.8628819,7.71259843 87.8415039,8.72529899 C86.8201259,9.73799954 86.3094446,10.7938614 86.3094446,11.8929163 L86.3094446,18.1810488 C86.3094446,19.2801036 86.8201259,20.3359655 87.8415039,21.3486661 C88.8628819,22.3613666 89.9235277,22.8677093 91.0234732,22.8677093 L94.1583023,22.8677093 C94.8025561,22.8677093 95.2425277,22.6008 95.4782303,22.0669733 C95.6353653,21.5645482 95.7924981,21.0542804 95.9496331,20.5361546 C96.1853357,20.0023279 96.633164,19.7354186 97.2931313,19.7354186 L100.42796,19.7354186 C100.852225,19.7354186 101.217559,19.8884989 101.523972,20.1946642 C101.830385,20.5008295 101.98359,20.8658672 101.98359,21.2897884 C101.98359,22.3888433 101.476837,23.4486303 100.463316,24.4691812 C99.4497943,25.4897322 98.3930768,26 97.2931313,26 L87.8886442,26 C86.8358392,26 85.9401827,25.6310371 85.2016479,24.8931003 L81.1475833,20.8423183 C80.4090484,20.1043815 80.0397865,19.2173005 80.0397865,18.1810488 L80.0397865,11.8929163 C80.0397865,10.8566646 80.4090484,9.96958357 81.1475833,9.23164673 L85.2016479,5.18086477 C85.9401827,4.44292793 86.8358392,4.07396504 87.8886442,4.07396504 Z M105.851303,5.62833487 C105.851303,5.18871292 106.004507,4.81975003 106.310921,4.52143514 C106.617334,4.22312025 106.990524,4.07396504 107.430503,4.07396504 L123.104648,4.07396504 C123.528912,4.07396504 123.894246,4.22704539 124.200659,4.53321067 C124.507073,4.83937596 124.660277,5.2044137 124.660277,5.62833487 C124.660277,6.69598817 123.890327,7.22980681 122.350403,7.22980681 C122.161841,7.22980681 121.886859,7.22195653 121.525448,7.20625575 C121.164037,7.19055497 120.889055,7.18270469 120.700493,7.18270469 C119.160569,7.18270469 118.390619,7.70867306 118.390619,8.76062557 L118.390619,24.4220791 C118.390619,24.8617011 118.241343,25.2345891 117.942786,25.5407544 C117.64423,25.8469197 117.274968,26 116.83499,26 L113.700161,26 C113.260182,26 112.886992,25.8469197 112.580579,25.5407544 C112.274165,25.2345891 112.120961,24.8617011 112.120961,24.4220791 L112.120961,8.76062557 C112.120961,7.70867306 111.351011,7.18270469 109.811087,7.18270469 C109.622525,7.18270469 109.347543,7.19055497 108.986132,7.20625575 C108.624721,7.22195653 108.349739,7.22980681 108.161177,7.22980681 C106.621253,7.22980681 105.851303,6.69598817 105.851303,5.62833487 Z M141.913622,4.07396504 C142.950713,4.07396504 143.838513,4.44292793 144.577048,5.18086477 L148.631113,9.23164673 C149.369647,9.96958357 149.738909,10.8566646 149.738909,11.8929163 L149.738909,24.4220791 C149.738909,24.8617011 149.589633,25.2345891 149.291077,25.5407544 C148.99252,25.8469197 148.623258,26 148.18328,26 L145.048451,26 C143.979932,26 143.445681,25.2306731 143.445681,23.6919963 C143.445681,23.5035869 143.453538,23.2288273 143.469251,22.8677093 C143.484965,22.5065913 143.492821,22.2318317 143.492821,22.0434223 C143.492821,20.5047454 142.966427,19.7354186 141.913622,19.7354186 L135.643964,19.7354186 C134.575445,19.7354186 134.041194,20.5047454 134.041194,22.0434223 C134.041194,22.2318317 134.049051,22.5065913 134.064764,22.8677093 C134.080478,23.2288273 134.088334,23.5035869 134.088334,23.6919963 C134.088334,25.2306731 133.56194,26 132.509135,26 L129.374306,26 C128.934328,26 128.561137,25.8469197 128.254724,25.5407544 C127.948311,25.2345891 127.795106,24.8617011 127.795106,24.4220791 L127.795106,11.8929163 C127.795106,10.8566646 128.164368,9.96958357 128.902903,9.23164673 L132.956967,5.18086477 C133.695502,4.44292793 134.591159,4.07396504 135.643964,4.07396504 L141.913622,4.07396504 Z M143.469251,15.025207 L143.469251,11.8929163 C143.469251,10.7938614 142.962498,9.73799954 141.948977,8.72529899 C140.935456,7.71259843 139.878738,7.20625575 138.778793,7.20625575 C137.678847,7.20625575 136.618201,7.71259843 135.596824,8.72529899 C134.575446,9.73799954 134.064764,10.7938614 134.064764,11.8929163 L134.064764,15.025207 C134.064764,15.4648289 134.217969,15.837717 134.524382,16.1438822 C134.830795,16.4500475 135.203986,16.6031279 135.643964,16.6031279 L141.913622,16.6031279 C142.3536,16.6031279 142.722862,16.4500475 143.021419,16.1438822 C143.319975,15.837717 143.469251,15.4648289 143.469251,15.025207 Z M152.56578,5.62833487 C152.56578,5.18871292 152.718984,4.81975003 153.025398,4.52143514 C153.331811,4.22312025 153.705001,4.07396504 154.144979,4.07396504 L169.819124,4.07396504 C170.243389,4.07396504 170.608723,4.22704539 170.915136,4.53321067 C171.22155,4.83937596 171.374754,5.2044137 171.374754,5.62833487 C171.374754,6.69598817 170.604804,7.22980681 169.06488,7.22980681 C168.876318,7.22980681 168.601336,7.22195653 168.239925,7.20625575 C167.878514,7.19055497 167.603532,7.18270469 167.41497,7.18270469 C165.875046,7.18270469 165.105096,7.70867306 165.105096,8.76062557 L165.105096,24.4220791 C165.105096,24.8617011 164.95582,25.2345891 164.657263,25.5407544 C164.358707,25.8469197 163.989445,26 163.549466,26 L160.414637,26 C159.974659,26 159.601469,25.8469197 159.295056,25.5407544 C158.988642,25.2345891 158.835438,24.8617011 158.835438,24.4220791 L158.835438,8.76062557 C158.835438,7.70867306 158.065488,7.18270469 156.525564,7.18270469 C156.337002,7.18270469 156.062019,7.19055497 155.700609,7.20625575 C155.339198,7.22195653 155.064216,7.22980681 154.875654,7.22980681 C153.33573,7.22980681 152.56578,6.69598817 152.56578,5.62833487 Z M191.762928,4.07396504 L194.897757,4.07396504 C195.337735,4.07396504 195.706997,4.22704539 196.005553,4.53321067 C196.30411,4.83937596 196.453386,5.21226398 196.453386,5.65188592 L196.453386,24.4220791 C196.453386,24.8617011 196.30411,25.2345891 196.005553,25.5407544 C195.706997,25.8469197 195.337735,26 194.897757,26 L191.762928,26 C191.32295,26 190.949759,25.8469197 190.643346,25.5407544 C190.336933,25.2345891 190.183728,24.8617011 190.183728,24.4220791 L190.183728,18.1810488 C190.183728,17.7414268 190.034452,17.3685388 189.735895,17.0623735 C189.437339,16.7562082 189.068077,16.6031279 188.628099,16.6031279 L182.358441,16.6031279 C181.918462,16.6031279 181.545272,16.7562082 181.238859,17.0623735 C180.932445,17.3685388 180.779241,17.7414268 180.779241,18.1810488 L180.779241,24.4220791 C180.779241,24.8617011 180.629965,25.2345891 180.331408,25.5407544 C180.032852,25.8469197 179.66359,26 179.223612,26 L176.088783,26 C175.648804,26 175.275614,25.8469197 174.969201,25.5407544 C174.662787,25.2345891 174.509583,24.8617011 174.509583,24.4220791 L174.509583,5.65188592 C174.509583,5.21226398 174.662787,4.83937596 174.969201,4.53321067 C175.275614,4.22704539 175.648804,4.07396504 176.088783,4.07396504 L179.223612,4.07396504 C179.66359,4.07396504 180.032852,4.22704539 180.331408,4.53321067 C180.629965,4.83937596 180.779241,5.21226398 180.779241,5.65188592 L180.779241,11.8929163 C180.779241,12.3325382 180.932445,12.7054263 181.238859,13.0115915 C181.545272,13.3177568 181.918462,13.4708372 182.358441,13.4708372 L188.628099,13.4708372 C189.068077,13.4708372 189.437339,13.3177568 189.735895,13.0115915 C190.034452,12.7054263 190.183728,12.3325382 190.183728,11.8929163 L190.183728,5.65188592 C190.183728,5.21226398 190.336933,4.83937596 190.643346,4.53321067 C190.949759,4.22704539 191.32295,4.07396504 191.762928,4.07396504 Z M204.302244,4.07396504 L216.84156,4.07396504 C217.941505,4.07396504 218.998223,4.58030772 220.011744,5.59300828 C221.025265,6.60570884 221.532018,7.66157071 221.532018,8.76062557 L221.532018,21.2897884 C221.532018,22.3888433 221.025265,23.4486303 220.011744,24.4691812 C218.998223,25.4897322 217.941505,26 216.84156,26 L204.302244,26 C203.186585,26 202.122011,25.4936573 201.108489,24.4809568 C200.094968,23.4682562 199.588215,22.4045441 199.588215,21.2897884 L199.588215,8.76062557 C199.588215,7.66157071 200.098897,6.60570884 201.120275,5.59300828 C202.141653,4.58030772 203.202298,4.07396504 204.302244,4.07396504 Z M215.26236,21.2897884 L215.26236,8.76062557 C215.26236,8.33670441 215.109156,7.97166666 214.802743,7.66550138 C214.496329,7.3593361 214.130996,7.20625575 213.706731,7.20625575 L207.437073,7.20625575 C206.997095,7.20625575 206.623904,7.35541096 206.317491,7.65372585 C206.011078,7.95204074 205.857873,8.32100363 205.857873,8.76062557 L205.857873,21.2897884 C205.857873,21.7294104 206.011078,22.1022984 206.317491,22.4084637 C206.623904,22.7146289 206.997095,22.8677093 207.437073,22.8677093 L213.706731,22.8677093 C214.146709,22.8677093 214.515971,22.7146289 214.814528,22.4084637 C215.113084,22.1022984 215.26236,21.7294104 215.26236,21.2897884 Z M239.86959,14.2715731 C240.18386,14.2715731 240.340993,14.0046638 240.340993,13.4708372 L240.340993,5.62833487 C240.340993,5.18871292 240.494197,4.81975003 240.80061,4.52143514 C241.107024,4.22312025 241.480214,4.07396504 241.920192,4.07396504 L245.055021,4.07396504 C245.479286,4.07396504 245.84462,4.22704539 246.151033,4.53321067 C246.457446,4.83937596 246.610651,5.2044137 246.610651,5.62833487 L246.610651,24.4220791 C246.610651,24.8617011 246.461375,25.2345891 246.162818,25.5407544 C245.864261,25.8469197 245.494999,26 245.055021,26 C243.907935,26 243.153698,25.9685989 242.792288,25.9057958 C241.990899,25.7644887 241.323085,25.4269269 240.788825,24.8931003 L232.044302,16.1556578 C231.8086,15.920146 231.59647,15.8023919 231.407908,15.8023919 C231.093638,15.8023919 230.936506,16.0693012 230.936506,16.6031279 L230.936506,24.4220791 C230.936506,24.8617011 230.787229,25.2345891 230.488673,25.5407544 C230.190116,25.8469197 229.820854,26 229.380876,26 L226.246047,26 C225.806069,26 225.432879,25.8469197 225.126465,25.5407544 C224.820052,25.2345891 224.666847,24.8617011 224.666847,24.4220791 L224.666847,5.62833487 C224.666847,5.18871292 224.820052,4.81975003 225.126465,4.52143514 C225.432879,4.22312025 225.806069,4.07396504 226.246047,4.07396504 C227.37742,4.07396504 228.1238,4.10536614 228.485211,4.16816927 C229.2866,4.30947633 229.954414,4.64703812 230.488673,5.18086477 L239.233196,13.9183073 C239.468899,14.153819 239.681028,14.2715731 239.86959,14.2715731 Z" id="REACTATHON-FRONT" fill="#B52400"></path>
            </g>
        </g>
    </g>
</svg>